<mxfile host="app.diagrams.net" modified="2022-10-28T23:29:36.158Z" agent="5.0 (Windows NT 10.0; Win64; x64) AppleWebKit/537.36 (KHTML, like Gecko) Chrome/106.0.0.0 Safari/537.36" etag="rsxvrBEc2w0SK2pSMQmv" version="20.5.1" type="github">
  <diagram name="Page-1" id="7a6c530e-6e37-e111-ec74-82921da8cc10">
    <mxGraphModel dx="1667" dy="1134" grid="0" gridSize="10" guides="1" tooltips="1" connect="1" arrows="1" fold="1" page="1" pageScale="1.5" pageWidth="1169" pageHeight="826" background="none" math="0" shadow="0">
      <root>
        <mxCell id="0" style=";html=1;" />
        <mxCell id="1" style=";html=1;" parent="0" />
        <mxCell id="23046e2b9bb16c14-116" value="&lt;font face=&quot;Verdana&quot;&gt;TWS Radiology AI&lt;/font&gt;" style="whiteSpace=wrap;html=1;rounded=1;shadow=0;strokeWidth=2;fontSize=20;align=center;arcSize=3;verticalAlign=top;spacingTop=4;strokeColor=default;dashed=1;dashPattern=1 4;" parent="1" vertex="1">
          <mxGeometry x="287" y="247" width="1180" height="1282" as="geometry" />
        </mxCell>
        <mxCell id="50amSMv1iNsi5kxEuf1A-5" value="" style="shape=image;verticalLabelPosition=bottom;labelBackgroundColor=#ffffff;verticalAlign=top;aspect=fixed;imageAspect=0;image=data:image/svg+xml,PHN2ZyB4bWxuczpjYz0iaHR0cDovL2NyZWF0aXZlY29tbW9ucy5vcmcvbnMjIiB4bWxuczpkYz0iaHR0cDovL3B1cmwub3JnL2RjL2VsZW1lbnRzLzEuMS8iIHhtbG5zOmlua3NjYXBlPSJodHRwOi8vd3d3Lmlua3NjYXBlLm9yZy9uYW1lc3BhY2VzL2lua3NjYXBlIiB4bWxuczpyZGY9Imh0dHA6Ly93d3cudzMub3JnLzE5OTkvMDIvMjItcmRmLXN5bnRheC1ucyMiIHhtbG5zOnNvZGlwb2RpPSJodHRwOi8vc29kaXBvZGkuc291cmNlZm9yZ2UubmV0L0RURC9zb2RpcG9kaS0wLmR0ZCIgeG1sbnM6c3ZnPSJodHRwOi8vd3d3LnczLm9yZy8yMDAwL3N2ZyIgeG1sbnM9Imh0dHA6Ly93d3cudzMub3JnLzIwMDAvc3ZnIiB4bWxuczp4bGluaz0iaHR0cDovL3d3dy53My5vcmcvMTk5OS94bGluayIgdmVyc2lvbj0iMS4xIiBpZD0ic3ZnODA0NzkiIGlua3NjYXBlOnZlcnNpb249IjAuOTIuMyAoMjQwNTU0NiwgMjAxOC0wMy0xMSkiIHNvZGlwb2RpOmRvY25hbWU9ImdpdC5zdmciIHg9IjBweCIgeT0iMHB4IiB2aWV3Qm94PSIwIDAgMzAuMzcgMzAuMzciIHN0eWxlPSJlbmFibGUtYmFja2dyb3VuZDpuZXcgMCAwIDMwLjM3IDMwLjM3OyIgeG1sOnNwYWNlPSJwcmVzZXJ2ZSI+JiN4YTs8c29kaXBvZGk6bmFtZWR2aWV3IGJvcmRlcmNvbG9yPSIjNjY2NjY2IiBib3JkZXJvcGFjaXR5PSIxIiBmaXQtbWFyZ2luLWJvdHRvbT0iMCIgZml0LW1hcmdpbi1sZWZ0PSIwIiBmaXQtbWFyZ2luLXJpZ2h0PSIwIiBmaXQtbWFyZ2luLXRvcD0iMCIgZ3JpZHRvbGVyYW5jZT0iMTAiIGd1aWRldG9sZXJhbmNlPSIxMCIgaWQ9Im5hbWVkdmlldzgwNDgxIiBpbmtzY2FwZTpjdXJyZW50LWxheWVyPSJzdmc4MDQ3OSIgaW5rc2NhcGU6Y3g9IjI0LjU0MDUyIiBpbmtzY2FwZTpjeT0iLTcuOTc4NjcxNyIgaW5rc2NhcGU6cGFnZW9wYWNpdHk9IjAiIGlua3NjYXBlOnBhZ2VzaGFkb3c9IjIiIGlua3NjYXBlOndpbmRvdy1oZWlnaHQ9IjEwMTciIGlua3NjYXBlOndpbmRvdy1tYXhpbWl6ZWQ9IjEiIGlua3NjYXBlOndpbmRvdy13aWR0aD0iMTkyMCIgaW5rc2NhcGU6d2luZG93LXg9Ii04IiBpbmtzY2FwZTp3aW5kb3cteT0iLTgiIGlua3NjYXBlOnpvb209IjYuOTUyMzU1MSIgb2JqZWN0dG9sZXJhbmNlPSIxMCIgcGFnZWNvbG9yPSIjZmZmZmZmIiBzaG93Z3JpZD0iZmFsc2UiPiYjeGE7CTwvc29kaXBvZGk6bmFtZWR2aWV3PiYjeGE7PGcgaWQ9Imc4MDQ3NyIgdHJhbnNmb3JtPSJ0cmFuc2xhdGUoLTIwLjgxNTYsLTAuNzQyMikiPiYjeGE7CTx0aXRsZSBpZD0idGl0bGU4MDQ2NyI+UGFnZS0xPC90aXRsZT4mI3hhOwk8ZyBpZD0iZ3JvdXA0MjQ4LTEiIHRyYW5zZm9ybT0idHJhbnNsYXRlKDIwLjYzMDYsLTM0Ljg0MjgpIj4mI3hhOwkJPHRpdGxlIGlkPSJ0aXRsZTgwNDY5Ij5HaXQ8L3RpdGxlPiYjeGE7CQk8ZyBpZD0ic2hhcGU0MjQ5LTIiPiYjeGE7CQkJPHRpdGxlIGlkPSJ0aXRsZTgwNDcxIj5TaGVldC40MjQ5PC90aXRsZT4mI3hhOwkJCTxwYXRoIGlkPSJwYXRoODA0NzMiIGlua3NjYXBlOmNvbm5lY3Rvci1jdXJ2YXR1cmU9IjAiIHN0eWxlPSJmaWxsOiNGNTREMjc7IiBkPSJNMzAsNDkuNDRsLTEzLjMtMTMuMyAgICAgYy0wLjc0LTAuNzQtMS45Mi0wLjc0LTIuNjYsMGwtMi44NSwyLjg1bDMuNDMsMy40M2MwLjI2LTAuMSwwLjUzLTAuMTYsMC44NC0wLjE2YzEuMjcsMCwyLjMsMS4wMywyLjMsMi4zMiAgICAgYzAsMC4yOS0wLjA1LDAuNTgtMC4xNSwwLjg0bDMuMzYsMy4zNmMwLjI1LTAuMTEsMC41NS0wLjE3LDAuODMtMC4xN2MxLjI4LDAsMi4zMSwxLjA1LDIuMzEsMi4zMmMwLDEuMjktMS4wMywyLjMxLTIuMzEsMi4zMSAgICAgYy0xLjI3LDAtMi4zMS0xLjAyLTIuMzEtMi4zMWMwLTAuMjksMC4wNi0wLjU4LDAuMTYtMC44NGwtMy4xNy0zLjE3djguMjZjMC43NywwLjM5LDEuMjcsMS4xNywxLjI3LDIuMDYgICAgIGMwLDEuMjktMS4wMiwyLjMyLTIuMjksMi4zMmMtMS4yOSwwLTIuMzItMS4wMy0yLjMyLTIuMzJjMC0wLjk4LDAuNjEtMS44MiwxLjQ5LTIuMTV2LTguMzZjLTAuODgtMC4zMy0xLjQ5LTEuMTctMS40OS0yLjE1ICAgICBjMC0wLjMsMC4wNi0wLjU4LDAuMTYtMC44NWwtMy40My0zLjQybC05LjEzLDkuMTNDMCw1MC4xOCwwLDUxLjM2LDAuNzQsNTIuMDlsMTMuMywxMy4zMWMwLjczLDAuNzQsMS45MiwwLjc0LDIuNjYsMEwzMCw1Mi4wOSAgICAgQzMwLjc0LDUxLjM2LDMwLjc0LDUwLjE4LDMwLDQ5LjQ0eiIvPiYjeGE7CQk8L2c+JiN4YTsJPC9nPiYjeGE7PC9nPiYjeGE7PC9zdmc+;" vertex="1" parent="1">
          <mxGeometry x="50" y="440" width="60" height="60" as="geometry" />
        </mxCell>
        <mxCell id="50amSMv1iNsi5kxEuf1A-54" value="" style="edgeStyle=orthogonalEdgeStyle;rounded=0;orthogonalLoop=1;jettySize=auto;html=1;fontFamily=Verdana;" edge="1" parent="1" source="50amSMv1iNsi5kxEuf1A-9" target="50amSMv1iNsi5kxEuf1A-22">
          <mxGeometry relative="1" as="geometry" />
        </mxCell>
        <mxCell id="50amSMv1iNsi5kxEuf1A-9" value="" style="shape=image;verticalLabelPosition=bottom;labelBackgroundColor=#ffffff;verticalAlign=top;aspect=fixed;imageAspect=0;image=data:image/svg+xml,PHN2ZyB4bWxuczpkYz0iaHR0cDovL3B1cmwub3JnL2RjL2VsZW1lbnRzLzEuMS8iIHhtbG5zOmNjPSJodHRwOi8vY3JlYXRpdmVjb21tb25zLm9yZy9ucyMiIHhtbG5zOnJkZj0iaHR0cDovL3d3dy53My5vcmcvMTk5OS8wMi8yMi1yZGYtc3ludGF4LW5zIyIgeG1sbnM6c3ZnPSJodHRwOi8vd3d3LnczLm9yZy8yMDAwL3N2ZyIgeG1sbnM9Imh0dHA6Ly93d3cudzMub3JnLzIwMDAvc3ZnIiB4bWxuczpzb2RpcG9kaT0iaHR0cDovL3NvZGlwb2RpLnNvdXJjZWZvcmdlLm5ldC9EVEQvc29kaXBvZGktMC5kdGQiIHhtbG5zOmlua3NjYXBlPSJodHRwOi8vd3d3Lmlua3NjYXBlLm9yZy9uYW1lc3BhY2VzL2lua3NjYXBlIiB2ZXJzaW9uPSIxLjEiIGlkPSJzdmc4NjA4MSIgaW5rc2NhcGU6dmVyc2lvbj0iMC45Mi4zICgyNDA1NTQ2LCAyMDE4LTAzLTExKSIgc29kaXBvZGk6ZG9jbmFtZT0ibW9iaWxlX2VuZ2FnZW1lbnQuc3ZnIiB4PSIwcHgiIHk9IjBweCIgdmlld0JveD0iMCAwIDQ0LjMzIDY0LjQzMDAwMSIgeG1sOnNwYWNlPSJwcmVzZXJ2ZSIgd2lkdGg9IjQ0LjMzMDAwMiIgaGVpZ2h0PSI2NC40MyI+PG1ldGFkYXRhIGlkPSJtZXRhZGF0YTQ5MDciPjxyZGY6UkRGPjxjYzpXb3JrIHJkZjphYm91dD0iIj48ZGM6Zm9ybWF0PmltYWdlL3N2Zyt4bWw8L2RjOmZvcm1hdD48ZGM6dHlwZSByZGY6cmVzb3VyY2U9Imh0dHA6Ly9wdXJsLm9yZy9kYy9kY21pdHlwZS9TdGlsbEltYWdlIi8+PGRjOnRpdGxlLz48L2NjOldvcms+PC9yZGY6UkRGPjwvbWV0YWRhdGE+PGRlZnMgaWQ9ImRlZnM0OTA1Ii8+JiN4YTs8ZmlsdGVyIGlkPSJmaWx0ZXJfMiI+JiN4YTsJPGZlR2F1c3NpYW5CbHVyIGlkPSJmZUdhdXNzaWFuQmx1cjg1OTgyIiBzdGREZXZpYXRpb249IjIiLz4mI3hhOzwvZmlsdGVyPiYjeGE7PHNvZGlwb2RpOm5hbWVkdmlldyBib3JkZXJjb2xvcj0iIzY2NjY2NiIgYm9yZGVyb3BhY2l0eT0iMSIgZml0LW1hcmdpbi1ib3R0b209IjAiIGZpdC1tYXJnaW4tbGVmdD0iMCIgZml0LW1hcmdpbi1yaWdodD0iMCIgZml0LW1hcmdpbi10b3A9IjAiIGdyaWR0b2xlcmFuY2U9IjEwIiBndWlkZXRvbGVyYW5jZT0iMTAiIGlkPSJuYW1lZHZpZXc4NjA4MyIgaW5rc2NhcGU6Y3VycmVudC1sYXllcj0ic3ZnODYwODEiIGlua3NjYXBlOmN4PSItMzguODI2NDMyIiBpbmtzY2FwZTpjeT0iMjMuNTg4Mzg4IiBpbmtzY2FwZTpwYWdlb3BhY2l0eT0iMCIgaW5rc2NhcGU6cGFnZXNoYWRvdz0iMiIgaW5rc2NhcGU6d2luZG93LWhlaWdodD0iMTAxNyIgaW5rc2NhcGU6d2luZG93LW1heGltaXplZD0iMSIgaW5rc2NhcGU6d2luZG93LXdpZHRoPSIxOTIwIiBpbmtzY2FwZTp3aW5kb3cteD0iLTgiIGlua3NjYXBlOndpbmRvdy15PSItOCIgaW5rc2NhcGU6em9vbT0iNy4zMTM2NDEiIG9iamVjdHRvbGVyYW5jZT0iMTAiIHBhZ2Vjb2xvcj0iI2ZmZmZmZiIgc2hvd2dyaWQ9ImZhbHNlIj4mI3hhOwk8L3NvZGlwb2RpOm5hbWVkdmlldz4mI3hhOyYjeGE7PHBhdGggaWQ9InBhdGg4NTk5NSIgaW5rc2NhcGU6Y29ubmVjdG9yLWN1cnZhdHVyZT0iMCIgc3R5bGU9ImZpbGw6IzNlM2UzZSIgZD0ibSA0NC4zMyw2MC41NiBjIDAsMi4xOSAtMS42OCwzLjg3IC0zLjg3LDMuODcgSCAzLjg3IEMgMS42OCw2NC40MyAwLDYyLjc1IDAsNjAuNTYgViAzLjg3IEMgMCwxLjY4IDEuNjgsMCAzLjg3LDAgaCAzNi41OSBjIDIuMTksMCAzLjg3LDEuNjggMy44NywzLjg3IHoiLz4mI3hhOyYjeGE7PHJlY3QgaWQ9InJlY3Q4NjAwMyIgeD0iMi44MzAwMDE4IiB5PSI2LjQ0MDAwMDEiIHN0eWxlPSJmaWxsOiM1OWI0ZDkiIHdpZHRoPSIzOC42NiIgaGVpZ2h0PSI0NS4zNjAwMDEiLz4mI3hhOyYjeGE7PHBhdGggaWQ9InBhdGg4NjAxMSIgaW5rc2NhcGU6Y29ubmVjdG9yLWN1cnZhdHVyZT0iMCIgc3R5bGU9ImZpbGw6I2ZmZmZmZiIgZD0ibSAyNS45LDU4LjExIGMgMCwyLjA2IC0xLjY3LDMuNzQgLTMuNzMsMy43NCAtMi4wNiwwIC0zLjc0LC0xLjY4IC0zLjc0LC0zLjc0IDAsLTIuMDYgMS42OCwtMy43MyAzLjc0LC0zLjczIDIuMDYsMCAzLjczLDEuNjcgMy43MywzLjczIHoiLz4mI3hhOyYjeGE7PHBhdGggaWQ9InBhdGg4NjAxOSIgaW5rc2NhcGU6Y29ubmVjdG9yLWN1cnZhdHVyZT0iMCIgc3R5bGU9ImZpbGw6I2I4ZDQzMiIgZD0ibSAyNC42Miw1OC4xMSBjIDAsMS4yOSAtMS4wMywyLjQ1IC0yLjQ1LDIuNDUgLTEuMjksMCAtMi40NSwtMS4wMyAtMi40NSwtMi40NSAwLC0xLjQyIDEuMDMsLTIuNDUgMi40NSwtMi40NSAxLjQyLDAgMi40NSwxLjE2IDIuNDUsMi40NSB6Ii8+JiN4YTsmI3hhOzxwYXRoIGlkPSJwYXRoODYwMjciIGlua3NjYXBlOmNvbm5lY3Rvci1jdXJ2YXR1cmU9IjAiIHN0eWxlPSJmaWxsOiNmZmZmZmY7ZmlsbC1vcGFjaXR5OjAuMTUiIGQ9Ik0gMi44Myw1MS44IFYgNi40NCBIIDMyLjIxIEwgMzQuNzksMCBIIDMuODcgQyAxLjY4LDAgMCwxLjY4IDAsMy44NyB2IDU2LjY5IGMgMCwyLjE5IDEuNjgsMy44NyAzLjg3LDMuODcgSCA4LjYzIEwgMTMuNzksNTEuOCBaIi8+JiN4YTsmI3hhOyYjeGE7JiN4YTs8cGF0aCBpZD0icGF0aDg2MDQzIiBpbmtzY2FwZTpjb25uZWN0b3ItY3VydmF0dXJlPSIwIiBzdHlsZT0iZmlsbDojZmZmZmZmIiBkPSJtIDI4LjczLDMuNjEgYyAwLDAuNTEgLTAuMzgsMC45IC0wLjksMC45IEggMTYuNjIgYyAtMC41MSwwIC0wLjksLTAuMzkgLTAuOSwtMC45IDAsLTAuNTIgMC4zOSwtMC45IDAuOSwtMC45IGggMTEuMjEgYyAwLjUyLDAgMC45LDAuMzggMC45LDAuOSB6Ii8+JiN4YTsmI3hhOzxyZWN0IGlkPSJyZWN0ODYwNTEiIHg9IjYuODMwMDAxOCIgeT0iNDEuNjE5OTk5IiBzdHlsZT0iZmlsbDojZmZmZmZmO2ZpbGwtb3BhY2l0eTowLjc1IiB3aWR0aD0iNy43MyIgaGVpZ2h0PSI3LjczIi8+JiN4YTsmI3hhOzxyZWN0IGlkPSJyZWN0ODYwNTkiIHg9IjE4LjA0MDAwMSIgeT0iMzUuODIiIHN0eWxlPSJmaWxsOiNmZmZmZmY7ZmlsbC1vcGFjaXR5OjAuNzUiIHdpZHRoPSI3LjczIiBoZWlnaHQ9IjEzLjUzIi8+JiN4YTsmI3hhOzxyZWN0IGlkPSJyZWN0ODYwNjciIHg9IjI5LjI1IiB5PSIzMC4wMiIgc3R5bGU9ImZpbGw6I2ZmZmZmZjtmaWxsLW9wYWNpdHk6MC43NSIgd2lkdGg9IjcuNzMiIGhlaWdodD0iMTkuMzMiLz4mI3hhOyYjeGE7PHBhdGggaWQ9InBhdGg4NjA3NSIgaW5rc2NhcGU6Y29ubmVjdG9yLWN1cnZhdHVyZT0iMCIgc3R5bGU9ImZpbGw6I2ZmZmZmZjtmaWxsLW9wYWNpdHk6MC43NSIgZD0iTSAzMy4zNyw5LjAyIEggMTAuNDQgYyAtMi4wNiwwIC0zLjYxLDEuNjggLTMuNjEsMy42MSB2IDExLjA4IGMgMCwyLjA2IDEuNjgsMy42MSAzLjYxLDMuNjEgaCA0LjUxIHYgNC43NyBsIDQuNzcsLTQuNzcgaCAxMy42NSBjIDIuMDcsMCAzLjYxLC0xLjY3IDMuNjEsLTMuNjEgViAxMi42MyBjIDAsLTEuOTMgLTEuNTQsLTMuNjEgLTMuNjEsLTMuNjEgeiIvPiYjeGE7PC9zdmc+;" vertex="1" parent="1">
          <mxGeometry x="577.1700000000001" y="23" width="37.13" height="54" as="geometry" />
        </mxCell>
        <mxCell id="50amSMv1iNsi5kxEuf1A-55" style="edgeStyle=orthogonalEdgeStyle;rounded=0;orthogonalLoop=1;jettySize=auto;html=1;fontFamily=Verdana;" edge="1" parent="1" source="50amSMv1iNsi5kxEuf1A-18" target="50amSMv1iNsi5kxEuf1A-22">
          <mxGeometry relative="1" as="geometry" />
        </mxCell>
        <mxCell id="50amSMv1iNsi5kxEuf1A-18" value="" style="aspect=fixed;html=1;points=[];align=center;image;fontSize=12;image=img/lib/azure2/networking/DNS_Zones.svg;" vertex="1" parent="1">
          <mxGeometry x="337" y="131.22" width="60" height="60" as="geometry" />
        </mxCell>
        <mxCell id="50amSMv1iNsi5kxEuf1A-58" value="" style="edgeStyle=orthogonalEdgeStyle;rounded=0;orthogonalLoop=1;jettySize=auto;html=1;fontFamily=Verdana;" edge="1" parent="1" source="50amSMv1iNsi5kxEuf1A-19" target="50amSMv1iNsi5kxEuf1A-33">
          <mxGeometry relative="1" as="geometry" />
        </mxCell>
        <mxCell id="50amSMv1iNsi5kxEuf1A-19" value="&lt;font face=&quot;Verdana&quot;&gt;RadiologyAI&lt;/font&gt;" style="whiteSpace=wrap;html=1;rounded=1;shadow=0;strokeWidth=2;fontSize=20;align=center;arcSize=3;verticalAlign=top;spacingTop=4;fillColor=#dae8fc;strokeColor=#6c8ebf;dashed=1;gradientColor=#FCFCFC;" vertex="1" parent="1">
          <mxGeometry x="333.24" y="380" width="525" height="211" as="geometry" />
        </mxCell>
        <mxCell id="50amSMv1iNsi5kxEuf1A-11" value="" style="aspect=fixed;html=1;points=[];align=center;image;fontSize=12;image=img/lib/azure2/compute/App_Services.svg;" vertex="1" parent="1">
          <mxGeometry x="556.76" y="430" width="64" height="64" as="geometry" />
        </mxCell>
        <mxCell id="50amSMv1iNsi5kxEuf1A-59" value="" style="edgeStyle=orthogonalEdgeStyle;rounded=0;orthogonalLoop=1;jettySize=auto;html=1;fontFamily=Verdana;" edge="1" parent="1" source="50amSMv1iNsi5kxEuf1A-20" target="50amSMv1iNsi5kxEuf1A-34">
          <mxGeometry relative="1" as="geometry" />
        </mxCell>
        <mxCell id="50amSMv1iNsi5kxEuf1A-20" value="&lt;font face=&quot;Verdana&quot;&gt;TWS DICOM Viewer&lt;/font&gt;" style="whiteSpace=wrap;html=1;rounded=1;shadow=0;strokeWidth=2;fontSize=20;align=center;arcSize=3;verticalAlign=top;spacingTop=4;fillColor=#dae8fc;strokeColor=#6c8ebf;dashed=1;gradientColor=#F2F2F2;" vertex="1" parent="1">
          <mxGeometry x="895.76" y="380" width="525" height="220" as="geometry" />
        </mxCell>
        <mxCell id="50amSMv1iNsi5kxEuf1A-21" value="" style="aspect=fixed;html=1;points=[];align=center;image;fontSize=12;image=img/lib/azure2/compute/App_Services.svg;" vertex="1" parent="1">
          <mxGeometry x="1136.76" y="430" width="64" height="64" as="geometry" />
        </mxCell>
        <mxCell id="50amSMv1iNsi5kxEuf1A-57" style="edgeStyle=orthogonalEdgeStyle;rounded=0;orthogonalLoop=1;jettySize=auto;html=1;fontFamily=Verdana;" edge="1" parent="1" source="50amSMv1iNsi5kxEuf1A-22" target="50amSMv1iNsi5kxEuf1A-19">
          <mxGeometry relative="1" as="geometry" />
        </mxCell>
        <mxCell id="50amSMv1iNsi5kxEuf1A-22" value="Internet" style="aspect=fixed;perimeter=ellipsePerimeter;html=1;align=center;shadow=0;dashed=0;spacingTop=3;image;image=img/lib/active_directory/internet_cloud.svg;fontFamily=Verdana;" vertex="1" parent="1">
          <mxGeometry x="548.74" y="132.39" width="94" height="59.22" as="geometry" />
        </mxCell>
        <mxCell id="50amSMv1iNsi5kxEuf1A-56" style="edgeStyle=orthogonalEdgeStyle;rounded=0;orthogonalLoop=1;jettySize=auto;html=1;entryX=1;entryY=0.5;entryDx=0;entryDy=0;fontFamily=Verdana;" edge="1" parent="1" source="50amSMv1iNsi5kxEuf1A-23" target="50amSMv1iNsi5kxEuf1A-22">
          <mxGeometry relative="1" as="geometry" />
        </mxCell>
        <mxCell id="50amSMv1iNsi5kxEuf1A-23" value="" style="aspect=fixed;html=1;points=[];align=center;image;fontSize=12;image=img/lib/azure2/identity/Azure_Active_Directory.svg;fontFamily=Verdana;" vertex="1" parent="1">
          <mxGeometry x="755.76" y="129.22" width="70" height="64" as="geometry" />
        </mxCell>
        <mxCell id="50amSMv1iNsi5kxEuf1A-26" value="Resource Group" style="sketch=0;aspect=fixed;html=1;points=[];align=center;image;fontSize=12;image=img/lib/mscae/ResourceGroup.svg;strokeColor=default;fontFamily=Verdana;fillColor=#7DD8FF;gradientColor=#FFFFFF;" vertex="1" parent="1">
          <mxGeometry x="839" y="1447" width="75" height="60" as="geometry" />
        </mxCell>
        <mxCell id="50amSMv1iNsi5kxEuf1A-31" value="Azure Key" style="shape=image;verticalLabelPosition=bottom;labelBackgroundColor=#ffffff;verticalAlign=top;aspect=fixed;imageAspect=0;image=data:image/svg+xml,PHN2ZyB4bWxuczpjYz0iaHR0cDovL2NyZWF0aXZlY29tbW9ucy5vcmcvbnMjIiB4bWxuczpkYz0iaHR0cDovL3B1cmwub3JnL2RjL2VsZW1lbnRzLzEuMS8iIHhtbG5zOmlua3NjYXBlPSJodHRwOi8vd3d3Lmlua3NjYXBlLm9yZy9uYW1lc3BhY2VzL2lua3NjYXBlIiB4bWxuczpyZGY9Imh0dHA6Ly93d3cudzMub3JnLzE5OTkvMDIvMjItcmRmLXN5bnRheC1ucyMiIHhtbG5zOnNvZGlwb2RpPSJodHRwOi8vc29kaXBvZGkuc291cmNlZm9yZ2UubmV0L0RURC9zb2RpcG9kaS0wLmR0ZCIgeG1sbnM6c3ZnPSJodHRwOi8vd3d3LnczLm9yZy8yMDAwL3N2ZyIgeG1sbnM9Imh0dHA6Ly93d3cudzMub3JnLzIwMDAvc3ZnIiB4bWxuczp4bGluaz0iaHR0cDovL3d3dy53My5vcmcvMTk5OS94bGluayIgdmVyc2lvbj0iMS4xIiBpZD0ic3ZnNjg3MjMiIGlua3NjYXBlOnZlcnNpb249IjAuOTIuMyAoMjQwNTU0NiwgMjAxOC0wMy0xMSkiIHNvZGlwb2RpOmRvY25hbWU9ImtleV92YXVsdC5zdmciIHg9IjBweCIgeT0iMHB4IiB2aWV3Qm94PSIwIDAgMzQuNjIgMzguNTYiIHN0eWxlPSJlbmFibGUtYmFja2dyb3VuZDpuZXcgMCAwIDM0LjYyIDM4LjU2OyIgeG1sOnNwYWNlPSJwcmVzZXJ2ZSI+JiN4YTs8c29kaXBvZGk6bmFtZWR2aWV3IGJvcmRlcmNvbG9yPSIjNjY2NjY2IiBib3JkZXJvcGFjaXR5PSIxIiBmaXQtbWFyZ2luLWJvdHRvbT0iMCIgZml0LW1hcmdpbi1sZWZ0PSIwIiBmaXQtbWFyZ2luLXJpZ2h0PSIwIiBmaXQtbWFyZ2luLXRvcD0iMCIgZ3JpZHRvbGVyYW5jZT0iMTAiIGd1aWRldG9sZXJhbmNlPSIxMCIgaWQ9Im5hbWVkdmlldzY4NzI1IiBpbmtzY2FwZTpjdXJyZW50LWxheWVyPSJzdmc2ODcyMyIgaW5rc2NhcGU6Y3g9IjM1LjUzNzc2IiBpbmtzY2FwZTpjeT0iLTIzLjg1ODA4IiBpbmtzY2FwZTpwYWdlb3BhY2l0eT0iMCIgaW5rc2NhcGU6cGFnZXNoYWRvdz0iMiIgaW5rc2NhcGU6d2luZG93LWhlaWdodD0iMTAxNyIgaW5rc2NhcGU6d2luZG93LW1heGltaXplZD0iMSIgaW5rc2NhcGU6d2luZG93LXdpZHRoPSIxOTIwIiBpbmtzY2FwZTp3aW5kb3cteD0iLTgiIGlua3NjYXBlOndpbmRvdy15PSItOCIgaW5rc2NhcGU6em9vbT0iMi43NTEzMzA1IiBvYmplY3R0b2xlcmFuY2U9IjEwIiBwYWdlY29sb3I9IiNmZmZmZmYiIHNob3dncmlkPSJmYWxzZSI+JiN4YTsJPC9zb2RpcG9kaTpuYW1lZHZpZXc+JiN4YTs8ZyBpZD0iZzY4NzIxIiB0cmFuc2Zvcm09InRyYW5zbGF0ZSgtMTguNTYyNTk2LC0wLjk2Njg2KSI+JiN4YTsJPHRpdGxlIGlkPSJ0aXRsZTY4NzA2Ij5QYWdlLTE8L3RpdGxlPiYjeGE7CTxnIGlkPSJncm91cDQ0OTktMSIgdHJhbnNmb3JtPSJ0cmFuc2xhdGUoMTguNTYyNSwtNDQuMDI5NSkiPiYjeGE7CQk8dGl0bGUgaWQ9InRpdGxlNjg3MDgiPktleSBWYXVsdDwvdGl0bGU+JiN4YTsJCTxnIGlkPSJzaGFwZTQ1MDAtMiI+JiN4YTsJCQk8dGl0bGUgaWQ9InRpdGxlNjg3MTAiPlNoZWV0LjQ1MDA8L3RpdGxlPiYjeGE7CQkJPHBhdGggaWQ9InBhdGg2ODcxMiIgaW5rc2NhcGU6Y29ubmVjdG9yLWN1cnZhdHVyZT0iMCIgc3R5bGU9ImZpbGw6IzNGNTc2NTsiIGQ9Ik0zNC42Miw2Ni4zM2MwLTUuNjQtMi43MS0xMC41OS02LjgtMTMuNzYgICAgIGMwLDAuMTYsMCwwLjM5LDAsMC41NGMwLDEuNy0wLjQ3LDMuMzMtMS4xNiw0LjcyYzIuMDEsMi4yNCwzLjI0LDUuMTcsMy4yNCw4LjQyYzAsNi45NS01LjY0LDEyLjYtMTIuNTksMTIuNiAgICAgYy02Ljk2LDAtMTIuNi01LjY1LTEyLjYtMTIuNmMwLTMuNDgsMS4zOS02LjU3LDMuNjQtOC44OWMtMC42Mi0xLjMxLTEuMDEtMi43OC0xLjAxLTQuMzJjMC0wLjMxLDAtMC43LDAuMDgtMS4wMSAgICAgQzIuOTQsNTUuMTIsMCw2MC4zOCwwLDY2LjI1YzAsOS41OCw3LjczLDE3LjMxLDE3LjMxLDE3LjMxUzM0LjYyLDc1LjkxLDM0LjYyLDY2LjMzeiIvPiYjeGE7CQk8L2c+JiN4YTsJCTxnIGlkPSJzaGFwZTQ1MDEtNCIgdHJhbnNmb3JtPSJ0cmFuc2xhdGUoOS41ODE4MiwtOC4xMTM2NCkiPiYjeGE7CQkJPHRpdGxlIGlkPSJ0aXRsZTY4NzE1Ij5TaGVldC40NTAxPC90aXRsZT4mI3hhOwkJCTxwYXRoIGlkPSJwYXRoNjg3MTciIGlua3NjYXBlOmNvbm5lY3Rvci1jdXJ2YXR1cmU9IjAiIHN0eWxlPSJmaWxsOiMzRjU3NjU7IiBkPSJNNy45Niw1My4xMUMzLjU1LDUzLjExLDAsNTYuNjcsMCw2MS4wNyAgICAgYzAsMy42MywyLjQsNi42NSw1LjcyLDcuNjV2Ny44OEgyLjAxdjQuMDJoMy43MXYyLjk0aDQuNFY2OC43MmMzLjMzLTAuOTIsNS43Mi00LjAyLDUuNzItNy42NSAgICAgQzE1LjkyLDU2LjY3LDEyLjM2LDUzLjExLDcuOTYsNTMuMTF6IE03Ljk2LDU3LjI5YzIuMDksMCwzLjc5LDEuNywzLjc5LDMuNzhjMCwyLjA5LTEuNywzLjc5LTMuNzksMy43OXMtMy43OS0xLjctMy43OS0zLjc5ICAgICBDNC4xNyw1OC45OSw1Ljg3LDU3LjI5LDcuOTYsNTcuMjl6Ii8+JiN4YTsJCTwvZz4mI3hhOwk8L2c+JiN4YTs8L2c+JiN4YTs8L3N2Zz4=;strokeColor=default;fontFamily=Verdana;fillColor=#7DD8FF;gradientColor=#FFFFFF;" vertex="1" parent="1">
          <mxGeometry x="340" y="310" width="35" height="39" as="geometry" />
        </mxCell>
        <mxCell id="50amSMv1iNsi5kxEuf1A-32" value="Azure Key" style="shape=image;verticalLabelPosition=bottom;labelBackgroundColor=#ffffff;verticalAlign=top;aspect=fixed;imageAspect=0;image=data:image/svg+xml,PHN2ZyB4bWxuczpjYz0iaHR0cDovL2NyZWF0aXZlY29tbW9ucy5vcmcvbnMjIiB4bWxuczpkYz0iaHR0cDovL3B1cmwub3JnL2RjL2VsZW1lbnRzLzEuMS8iIHhtbG5zOmlua3NjYXBlPSJodHRwOi8vd3d3Lmlua3NjYXBlLm9yZy9uYW1lc3BhY2VzL2lua3NjYXBlIiB4bWxuczpyZGY9Imh0dHA6Ly93d3cudzMub3JnLzE5OTkvMDIvMjItcmRmLXN5bnRheC1ucyMiIHhtbG5zOnNvZGlwb2RpPSJodHRwOi8vc29kaXBvZGkuc291cmNlZm9yZ2UubmV0L0RURC9zb2RpcG9kaS0wLmR0ZCIgeG1sbnM6c3ZnPSJodHRwOi8vd3d3LnczLm9yZy8yMDAwL3N2ZyIgeG1sbnM9Imh0dHA6Ly93d3cudzMub3JnLzIwMDAvc3ZnIiB4bWxuczp4bGluaz0iaHR0cDovL3d3dy53My5vcmcvMTk5OS94bGluayIgdmVyc2lvbj0iMS4xIiBpZD0ic3ZnNjg3MjMiIGlua3NjYXBlOnZlcnNpb249IjAuOTIuMyAoMjQwNTU0NiwgMjAxOC0wMy0xMSkiIHNvZGlwb2RpOmRvY25hbWU9ImtleV92YXVsdC5zdmciIHg9IjBweCIgeT0iMHB4IiB2aWV3Qm94PSIwIDAgMzQuNjIgMzguNTYiIHN0eWxlPSJlbmFibGUtYmFja2dyb3VuZDpuZXcgMCAwIDM0LjYyIDM4LjU2OyIgeG1sOnNwYWNlPSJwcmVzZXJ2ZSI+JiN4YTs8c29kaXBvZGk6bmFtZWR2aWV3IGJvcmRlcmNvbG9yPSIjNjY2NjY2IiBib3JkZXJvcGFjaXR5PSIxIiBmaXQtbWFyZ2luLWJvdHRvbT0iMCIgZml0LW1hcmdpbi1sZWZ0PSIwIiBmaXQtbWFyZ2luLXJpZ2h0PSIwIiBmaXQtbWFyZ2luLXRvcD0iMCIgZ3JpZHRvbGVyYW5jZT0iMTAiIGd1aWRldG9sZXJhbmNlPSIxMCIgaWQ9Im5hbWVkdmlldzY4NzI1IiBpbmtzY2FwZTpjdXJyZW50LWxheWVyPSJzdmc2ODcyMyIgaW5rc2NhcGU6Y3g9IjM1LjUzNzc2IiBpbmtzY2FwZTpjeT0iLTIzLjg1ODA4IiBpbmtzY2FwZTpwYWdlb3BhY2l0eT0iMCIgaW5rc2NhcGU6cGFnZXNoYWRvdz0iMiIgaW5rc2NhcGU6d2luZG93LWhlaWdodD0iMTAxNyIgaW5rc2NhcGU6d2luZG93LW1heGltaXplZD0iMSIgaW5rc2NhcGU6d2luZG93LXdpZHRoPSIxOTIwIiBpbmtzY2FwZTp3aW5kb3cteD0iLTgiIGlua3NjYXBlOndpbmRvdy15PSItOCIgaW5rc2NhcGU6em9vbT0iMi43NTEzMzA1IiBvYmplY3R0b2xlcmFuY2U9IjEwIiBwYWdlY29sb3I9IiNmZmZmZmYiIHNob3dncmlkPSJmYWxzZSI+JiN4YTsJPC9zb2RpcG9kaTpuYW1lZHZpZXc+JiN4YTs8ZyBpZD0iZzY4NzIxIiB0cmFuc2Zvcm09InRyYW5zbGF0ZSgtMTguNTYyNTk2LC0wLjk2Njg2KSI+JiN4YTsJPHRpdGxlIGlkPSJ0aXRsZTY4NzA2Ij5QYWdlLTE8L3RpdGxlPiYjeGE7CTxnIGlkPSJncm91cDQ0OTktMSIgdHJhbnNmb3JtPSJ0cmFuc2xhdGUoMTguNTYyNSwtNDQuMDI5NSkiPiYjeGE7CQk8dGl0bGUgaWQ9InRpdGxlNjg3MDgiPktleSBWYXVsdDwvdGl0bGU+JiN4YTsJCTxnIGlkPSJzaGFwZTQ1MDAtMiI+JiN4YTsJCQk8dGl0bGUgaWQ9InRpdGxlNjg3MTAiPlNoZWV0LjQ1MDA8L3RpdGxlPiYjeGE7CQkJPHBhdGggaWQ9InBhdGg2ODcxMiIgaW5rc2NhcGU6Y29ubmVjdG9yLWN1cnZhdHVyZT0iMCIgc3R5bGU9ImZpbGw6IzNGNTc2NTsiIGQ9Ik0zNC42Miw2Ni4zM2MwLTUuNjQtMi43MS0xMC41OS02LjgtMTMuNzYgICAgIGMwLDAuMTYsMCwwLjM5LDAsMC41NGMwLDEuNy0wLjQ3LDMuMzMtMS4xNiw0LjcyYzIuMDEsMi4yNCwzLjI0LDUuMTcsMy4yNCw4LjQyYzAsNi45NS01LjY0LDEyLjYtMTIuNTksMTIuNiAgICAgYy02Ljk2LDAtMTIuNi01LjY1LTEyLjYtMTIuNmMwLTMuNDgsMS4zOS02LjU3LDMuNjQtOC44OWMtMC42Mi0xLjMxLTEuMDEtMi43OC0xLjAxLTQuMzJjMC0wLjMxLDAtMC43LDAuMDgtMS4wMSAgICAgQzIuOTQsNTUuMTIsMCw2MC4zOCwwLDY2LjI1YzAsOS41OCw3LjczLDE3LjMxLDE3LjMxLDE3LjMxUzM0LjYyLDc1LjkxLDM0LjYyLDY2LjMzeiIvPiYjeGE7CQk8L2c+JiN4YTsJCTxnIGlkPSJzaGFwZTQ1MDEtNCIgdHJhbnNmb3JtPSJ0cmFuc2xhdGUoOS41ODE4MiwtOC4xMTM2NCkiPiYjeGE7CQkJPHRpdGxlIGlkPSJ0aXRsZTY4NzE1Ij5TaGVldC40NTAxPC90aXRsZT4mI3hhOwkJCTxwYXRoIGlkPSJwYXRoNjg3MTciIGlua3NjYXBlOmNvbm5lY3Rvci1jdXJ2YXR1cmU9IjAiIHN0eWxlPSJmaWxsOiMzRjU3NjU7IiBkPSJNNy45Niw1My4xMUMzLjU1LDUzLjExLDAsNTYuNjcsMCw2MS4wNyAgICAgYzAsMy42MywyLjQsNi42NSw1LjcyLDcuNjV2Ny44OEgyLjAxdjQuMDJoMy43MXYyLjk0aDQuNFY2OC43MmMzLjMzLTAuOTIsNS43Mi00LjAyLDUuNzItNy42NSAgICAgQzE1LjkyLDU2LjY3LDEyLjM2LDUzLjExLDcuOTYsNTMuMTF6IE03Ljk2LDU3LjI5YzIuMDksMCwzLjc5LDEuNywzLjc5LDMuNzhjMCwyLjA5LTEuNywzLjc5LTMuNzksMy43OXMtMy43OS0xLjctMy43OS0zLjc5ICAgICBDNC4xNyw1OC45OSw1Ljg3LDU3LjI5LDcuOTYsNTcuMjl6Ii8+JiN4YTsJCTwvZz4mI3hhOwk8L2c+JiN4YTs8L2c+JiN4YTs8L3N2Zz4=;strokeColor=default;fontFamily=Verdana;fillColor=#7DD8FF;gradientColor=#FFFFFF;" vertex="1" parent="1">
          <mxGeometry x="1382" y="320" width="35" height="39" as="geometry" />
        </mxCell>
        <mxCell id="50amSMv1iNsi5kxEuf1A-60" value="" style="edgeStyle=orthogonalEdgeStyle;rounded=0;orthogonalLoop=1;jettySize=auto;html=1;fontFamily=Verdana;entryX=0.237;entryY=-0.036;entryDx=0;entryDy=0;entryPerimeter=0;" edge="1" parent="1" target="50amSMv1iNsi5kxEuf1A-40">
          <mxGeometry relative="1" as="geometry">
            <mxPoint x="589" y="917" as="sourcePoint" />
          </mxGeometry>
        </mxCell>
        <mxCell id="50amSMv1iNsi5kxEuf1A-33" value="&lt;font face=&quot;Verdana&quot;&gt;RadiologyAI MicroServices&lt;/font&gt;" style="whiteSpace=wrap;html=1;rounded=1;shadow=0;strokeWidth=2;fontSize=20;align=center;arcSize=3;verticalAlign=top;spacingTop=4;fillColor=#d5e8d4;strokeColor=#82b366;gradientColor=#FFFFFF;" vertex="1" parent="1">
          <mxGeometry x="326.26" y="626" width="536.74" height="284" as="geometry" />
        </mxCell>
        <mxCell id="50amSMv1iNsi5kxEuf1A-62" value="" style="edgeStyle=orthogonalEdgeStyle;rounded=0;orthogonalLoop=1;jettySize=auto;html=1;fontFamily=Verdana;entryX=0.75;entryY=0;entryDx=0;entryDy=0;" edge="1" parent="1" source="50amSMv1iNsi5kxEuf1A-34" target="50amSMv1iNsi5kxEuf1A-40">
          <mxGeometry relative="1" as="geometry">
            <Array as="points">
              <mxPoint x="1158" y="978" />
            </Array>
          </mxGeometry>
        </mxCell>
        <mxCell id="50amSMv1iNsi5kxEuf1A-34" value="&lt;font face=&quot;Verdana&quot;&gt;TWS DICOM Server&lt;/font&gt;" style="whiteSpace=wrap;html=1;rounded=1;shadow=0;strokeWidth=2;fontSize=20;align=center;arcSize=3;verticalAlign=top;spacingTop=4;fillColor=#d5e8d4;strokeColor=#82b366;gradientColor=#FFFFFF;" vertex="1" parent="1">
          <mxGeometry x="895.76" y="634" width="525" height="276" as="geometry" />
        </mxCell>
        <mxCell id="50amSMv1iNsi5kxEuf1A-38" value="Production" style="sketch=0;aspect=fixed;html=1;points=[];align=center;image;fontSize=12;image=img/lib/mscae/App_Services.svg;dashed=1;strokeColor=default;fontFamily=Verdana;fillColor=#7DD8FF;gradientColor=#FFFFFF;" vertex="1" parent="1">
          <mxGeometry x="670" y="508" width="50" height="50" as="geometry" />
        </mxCell>
        <mxCell id="50amSMv1iNsi5kxEuf1A-39" value="Stage" style="sketch=0;aspect=fixed;html=1;points=[];align=center;image;fontSize=12;image=img/lib/mscae/App_Services.svg;dashed=1;strokeColor=default;fontFamily=Verdana;fillColor=#7DD8FF;gradientColor=#FFFFFF;" vertex="1" parent="1">
          <mxGeometry x="455" y="508" width="50" height="50" as="geometry" />
        </mxCell>
        <mxCell id="50amSMv1iNsi5kxEuf1A-40" value="&lt;font face=&quot;Verdana&quot;&gt;RadiologyAI Cloud and Storage&lt;/font&gt;" style="whiteSpace=wrap;html=1;rounded=1;shadow=0;strokeWidth=2;fontSize=20;align=center;arcSize=3;verticalAlign=top;spacingTop=4;fillColor=#f8cecc;strokeColor=#b85450;gradientColor=#FFFFFF;" vertex="1" parent="1">
          <mxGeometry x="328.87" y="978" width="1096.13" height="180" as="geometry" />
        </mxCell>
        <mxCell id="50amSMv1iNsi5kxEuf1A-3" value="Azure Storage" style="shape=image;verticalLabelPosition=bottom;labelBackgroundColor=#ffffff;verticalAlign=top;aspect=fixed;imageAspect=0;image=data:image/svg+xml,PHN2ZyB4bWxuczpjYz0iaHR0cDovL2NyZWF0aXZlY29tbW9ucy5vcmcvbnMjIiB4bWxuczpkYz0iaHR0cDovL3B1cmwub3JnL2RjL2VsZW1lbnRzLzEuMS8iIHhtbG5zOmlua3NjYXBlPSJodHRwOi8vd3d3Lmlua3NjYXBlLm9yZy9uYW1lc3BhY2VzL2lua3NjYXBlIiB4bWxuczpyZGY9Imh0dHA6Ly93d3cudzMub3JnLzE5OTkvMDIvMjItcmRmLXN5bnRheC1ucyMiIHhtbG5zOnNvZGlwb2RpPSJodHRwOi8vc29kaXBvZGkuc291cmNlZm9yZ2UubmV0L0RURC9zb2RpcG9kaS0wLmR0ZCIgeG1sbnM6c3ZnPSJodHRwOi8vd3d3LnczLm9yZy8yMDAwL3N2ZyIgeG1sbnM9Imh0dHA6Ly93d3cudzMub3JnLzIwMDAvc3ZnIiB4bWxuczp4bGluaz0iaHR0cDovL3d3dy53My5vcmcvMTk5OS94bGluayIgdmVyc2lvbj0iMS4xIiBpZD0ic3ZnNTgwODUiIGlua3NjYXBlOnZlcnNpb249IjAuOTIuMyAoMjQwNTU0NiwgMjAxOC0wMy0xMSkiIHNvZGlwb2RpOmRvY25hbWU9ImF6dXJlX2ZpbGVzX3N0b3JhZ2Uuc3ZnIiB4PSIwcHgiIHk9IjBweCIgdmlld0JveD0iMCAwIDc1LjE3IDYyLjY1IiBzdHlsZT0iZW5hYmxlLWJhY2tncm91bmQ6bmV3IDAgMCA3NS4xNyA2Mi42NTsiIHhtbDpzcGFjZT0icHJlc2VydmUiPiYjeGE7PHNvZGlwb2RpOm5hbWVkdmlldyBib3JkZXJjb2xvcj0iIzY2NjY2NiIgYm9yZGVyb3BhY2l0eT0iMSIgZml0LW1hcmdpbi1ib3R0b209IjAiIGZpdC1tYXJnaW4tbGVmdD0iMCIgZml0LW1hcmdpbi1yaWdodD0iMCIgZml0LW1hcmdpbi10b3A9IjAiIGdyaWR0b2xlcmFuY2U9IjEwIiBndWlkZXRvbGVyYW5jZT0iMTAiIGlkPSJuYW1lZHZpZXc1ODA4NyIgaW5rc2NhcGU6Y3VycmVudC1sYXllcj0ic3ZnNTgwODUiIGlua3NjYXBlOmN4PSIxMDcuNDEzOTciIGlua3NjYXBlOmN5PSIyNS4yNzAzOCIgaW5rc2NhcGU6cGFnZW9wYWNpdHk9IjAiIGlua3NjYXBlOnBhZ2VzaGFkb3c9IjIiIGlua3NjYXBlOndpbmRvdy1oZWlnaHQ9IjEwMTciIGlua3NjYXBlOndpbmRvdy1tYXhpbWl6ZWQ9IjEiIGlua3NjYXBlOndpbmRvdy13aWR0aD0iMTkyMCIgaW5rc2NhcGU6d2luZG93LXg9Ii04IiBpbmtzY2FwZTp3aW5kb3cteT0iLTgiIGlua3NjYXBlOnpvb209IjQuMTcxMTY5OSIgb2JqZWN0dG9sZXJhbmNlPSIxMCIgcGFnZWNvbG9yPSIjZmZmZmZmIiBzaG93Z3JpZD0iZmFsc2UiPiYjeGE7CTwvc29kaXBvZGk6bmFtZWR2aWV3PiYjeGE7PGcgaWQ9Imc1ODA4MyIgdHJhbnNmb3JtPSJ0cmFuc2xhdGUoLTcuNjUwMTcwMywtNy42NDczOTUpIj4mI3hhOwk8dGl0bGUgaWQ9InRpdGxlNTgwNDYiPlBhZ2UtMTwvdGl0bGU+JiN4YTsJPGcgaWQ9Imdyb3VwNTIwOS0xIiB0cmFuc2Zvcm09InRyYW5zbGF0ZSg3LjY1LC03LjY1KSI+JiN4YTsJCTx0aXRsZSBpZD0idGl0bGU1ODA0OCI+QXp1cmUgRmlsZXMgU3RvcmFnZTwvdGl0bGU+JiN4YTsJCTxnIGlkPSJzaGFwZTUyMTAtMiI+JiN4YTsJCQk8dGl0bGUgaWQ9InRpdGxlNTgwNTAiPlNoZWV0LjUyMTA8L3RpdGxlPiYjeGE7CQkJPHBhdGggaWQ9InBhdGg1ODA1MiIgaW5rc2NhcGU6Y29ubmVjdG9yLWN1cnZhdHVyZT0iMCIgc3R5bGU9ImZpbGw6I0EwQTFBMjsiIGQ9Ik0wLDc1LjE4YzAsMS40NSwxLjIsMi43NywyLjcxLDIuNzdoNjkuNjEgICAgIGMxLjUsMCwyLjg1LTEuMTcsMi44NS0yLjc3VjI2Ljk1SDBWNzUuMTh6Ii8+JiN4YTsJCTwvZz4mI3hhOwkJPGcgaWQ9InNoYXBlNTIxMS00IiB0cmFuc2Zvcm09InRyYW5zbGF0ZSgwLC01MC45OTExKSI+JiN4YTsJCQk8dGl0bGUgaWQ9InRpdGxlNTgwNTUiPlNoZWV0LjUyMTE8L3RpdGxlPiYjeGE7CQkJPHBhdGggaWQ9InBhdGg1ODA1NyIgaW5rc2NhcGU6Y29ubmVjdG9yLWN1cnZhdHVyZT0iMCIgc3R5bGU9ImZpbGw6IzdBN0E3QTsiIGQ9Ik03Mi4zMiw2Ni40NEgyLjcxQzEuMiw2Ni40NCwwLDY3Ljc1LDAsNjkuMiAgICAgdjguNzVoNzUuMTd2LTguNzRjMC0xLjQ2LTEuMjItMi42MS0yLjg3LTIuNjFMNzIuMzIsNjYuNDR6Ii8+JiN4YTsJCQk8cGF0aCBpZD0icGF0aDU4MDU5IiBpbmtzY2FwZTpjb25uZWN0b3ItY3VydmF0dXJlPSIwIiBzdHlsZT0iZmlsbDpub25lOyIgZD0iTTcyLjMyLDY2LjQ0SDIuNzFDMS4yLDY2LjQ0LDAsNjcuNzUsMCw2OS4ydjguNzUgICAgIGg3NS4xN3YtOC43NGMwLTEuNDYtMS4yMi0yLjYxLTIuODctMi42MSIvPiYjeGE7CQk8L2c+JiN4YTsJCTxnIGlkPSJzaGFwZTUyMTItNyIgdHJhbnNmb3JtPSJ0cmFuc2xhdGUoNi4wMTM5OSwtMjEuMTI0MSkiPiYjeGE7CQkJPHRpdGxlIGlkPSJ0aXRsZTU4MDYyIj5TaGVldC41MjEyPC90aXRsZT4mI3hhOwkJCTxyZWN0IGlkPSJyZWN0NTgwNjQiIHg9IjAiIHk9IjY3Ljc1IiBzdHlsZT0iZmlsbDojQjhENDMyOyIgd2lkdGg9IjYzLjE1IiBoZWlnaHQ9IjEwLjIiLz4mI3hhOwkJPC9nPiYjeGE7CQk8ZyBpZD0ic2hhcGU1MjEzLTkiIHRyYW5zZm9ybT0idHJhbnNsYXRlKDYuMDEzOTksLTM2LjQyMSkiPiYjeGE7CQkJPHRpdGxlIGlkPSJ0aXRsZTU4MDY3Ij5TaGVldC41MjEzPC90aXRsZT4mI3hhOwkJCTxyZWN0IGlkPSJyZWN0NTgwNjkiIHg9IjAiIHk9IjY3Ljc1IiBzdHlsZT0iZmlsbDojRkZGRkZGOyIgd2lkdGg9IjYzLjE1IiBoZWlnaHQ9IjEwLjIiLz4mI3hhOwkJPC9nPiYjeGE7CQk8ZyBpZD0ic2hhcGU1MjE0LTExIiB0cmFuc2Zvcm09InRyYW5zbGF0ZSg2LjAxMzk5LC01LjgyNzMpIj4mI3hhOwkJCTx0aXRsZSBpZD0idGl0bGU1ODA3MiI+U2hlZXQuNTIxNDwvdGl0bGU+JiN4YTsJCQk8cmVjdCBpZD0icmVjdDU4MDc0IiB4PSIwIiB5PSI2Ny43NSIgc3R5bGU9ImZpbGw6I0I4RDQzMjsiIHdpZHRoPSI2My4xNSIgaGVpZ2h0PSIxMC4yIi8+JiN4YTsJCTwvZz4mI3hhOwkJPGcgaWQ9InNoYXBlNTIxNS0xMyIgdHJhbnNmb3JtPSJ0cmFuc2xhdGUoMCwtMC41ODI2MDUpIj4mI3hhOwkJCTx0aXRsZSBpZD0idGl0bGU1ODA3NyI+U2hlZXQuNTIxNTwvdGl0bGU+JiN4YTsJCQk8cGF0aCBpZD0icGF0aDU4MDc5IiBpbmtzY2FwZTpjb25uZWN0b3ItY3VydmF0dXJlPSIwIiBzdHlsZT0iZmlsbDojRkZGRkZGO2ZpbGwtb3BhY2l0eTowLjI7IiBkPSJNMy4wMSwxNS44OCAgICAgQzEuMzUsMTUuODgsMCwxNy4xOSwwLDE4Ljh2MTAuNjN2NC44MXY0MC43OWMwLDEuNiwxLjM1LDIuOTIsMy4wMSwyLjkyaDMuM2w1OS4yNC02Mi4wN0gzLjAxeiIvPiYjeGE7CQk8L2c+JiN4YTsJPC9nPiYjeGE7PC9nPiYjeGE7PC9zdmc+;" vertex="1" parent="1">
          <mxGeometry x="1136.76" y="1029" width="75" height="63" as="geometry" />
        </mxCell>
        <mxCell id="50amSMv1iNsi5kxEuf1A-8" value="SQL Database" style="shape=image;verticalLabelPosition=bottom;labelBackgroundColor=#ffffff;verticalAlign=top;aspect=fixed;imageAspect=0;image=data:image/svg+xml,PHN2ZyB4bWxuczpjYz0iaHR0cDovL2NyZWF0aXZlY29tbW9ucy5vcmcvbnMjIiB4bWxuczpkYz0iaHR0cDovL3B1cmwub3JnL2RjL2VsZW1lbnRzLzEuMS8iIHhtbG5zOmlua3NjYXBlPSJodHRwOi8vd3d3Lmlua3NjYXBlLm9yZy9uYW1lc3BhY2VzL2lua3NjYXBlIiB4bWxuczpyZGY9Imh0dHA6Ly93d3cudzMub3JnLzE5OTkvMDIvMjItcmRmLXN5bnRheC1ucyMiIHhtbG5zOnNvZGlwb2RpPSJodHRwOi8vc29kaXBvZGkuc291cmNlZm9yZ2UubmV0L0RURC9zb2RpcG9kaS0wLmR0ZCIgeG1sbnM6c3ZnPSJodHRwOi8vd3d3LnczLm9yZy8yMDAwL3N2ZyIgeG1sbnM9Imh0dHA6Ly93d3cudzMub3JnLzIwMDAvc3ZnIiB4bWxuczp4bGluaz0iaHR0cDovL3d3dy53My5vcmcvMTk5OS94bGluayIgdmVyc2lvbj0iMS4xIiBpZD0ic3ZnOTA4MDciIGlua3NjYXBlOnZlcnNpb249IjAuOTIuMyAoMjQwNTU0NiwgMjAxOC0wMy0xMSkiIHNvZGlwb2RpOmRvY25hbWU9InBvc3RncmVzcWwuc3ZnIiB4PSIwcHgiIHk9IjBweCIgdmlld0JveD0iMCAwIDI4LjUxIDM3LjQ1IiBzdHlsZT0iZW5hYmxlLWJhY2tncm91bmQ6bmV3IDAgMCAyOC41MSAzNy40NTsiIHhtbDpzcGFjZT0icHJlc2VydmUiPiYjeGE7PHNvZGlwb2RpOm5hbWVkdmlldyBib3JkZXJjb2xvcj0iIzY2NjY2NiIgYm9yZGVyb3BhY2l0eT0iMSIgZml0LW1hcmdpbi1ib3R0b209IjAiIGZpdC1tYXJnaW4tbGVmdD0iMCIgZml0LW1hcmdpbi1yaWdodD0iMCIgZml0LW1hcmdpbi10b3A9IjAiIGdyaWR0b2xlcmFuY2U9IjEwIiBndWlkZXRvbGVyYW5jZT0iMTAiIGlkPSJuYW1lZHZpZXc5MDgwOSIgaW5rc2NhcGU6Y3VycmVudC1sYXllcj0ic3ZnOTA4MDciIGlua3NjYXBlOmN4PSIzMy4wMjY1OTYiIGlua3NjYXBlOmN5PSIyMi4yNDk0MjciIGlua3NjYXBlOnBhZ2VvcGFjaXR5PSIwIiBpbmtzY2FwZTpwYWdlc2hhZG93PSIyIiBpbmtzY2FwZTp3aW5kb3ctaGVpZ2h0PSIxMDE3IiBpbmtzY2FwZTp3aW5kb3ctbWF4aW1pemVkPSIxIiBpbmtzY2FwZTp3aW5kb3ctd2lkdGg9IjE5MjAiIGlua3NjYXBlOndpbmRvdy14PSItOCIgaW5rc2NhcGU6d2luZG93LXk9Ii04IiBpbmtzY2FwZTp6b29tPSIxMS44MDQ2MzIiIG9iamVjdHRvbGVyYW5jZT0iMTAiIHBhZ2Vjb2xvcj0iI2ZmZmZmZiIgc2hvd2dyaWQ9ImZhbHNlIj4mI3hhOwk8L3NvZGlwb2RpOm5hbWVkdmlldz4mI3hhOzxnIGlkPSJnOTA4MDUiIHRyYW5zZm9ybT0idHJhbnNsYXRlKC0wLjc1LC0wLjc1MTkpIj4mI3hhOwk8dGl0bGUgaWQ9InRpdGxlOTA3MDUiPlBhZ2UtMTwvdGl0bGU+JiN4YTsJPGcgaWQ9Imdyb3VwNDk0Ni0xIiB0cmFuc2Zvcm09InRyYW5zbGF0ZSgwLjc1LC0wLjc1KSI+JiN4YTsJCTx0aXRsZSBpZD0idGl0bGU5MDcwNyI+UG9zdGdyZVNRTC40OTA8L3RpdGxlPiYjeGE7CQk8ZyBpZD0iZ3JvdXA0OTQ3LTIiPiYjeGE7CQkJPHRpdGxlIGlkPSJ0aXRsZTkwNzA5Ij5DSGVja21hcmtfMjwvdGl0bGU+JiN4YTsJCQk8ZyBpZD0ic2hhcGU0OTQ4LTMiPiYjeGE7CQkJCTx0aXRsZSBpZD0idGl0bGU5MDcxMSI+cGF0aDM2ODY8L3RpdGxlPiYjeGE7CQkJCTxwYXRoIGlkPSJwYXRoOTA3MTMiIGlua3NjYXBlOmNvbm5lY3Rvci1jdXJ2YXR1cmU9IjAiIHN0eWxlPSJmaWxsOiMzOTk4QzU7IiBkPSJNMCw2LjQ4djI3LjQ1YzAsMi44OCw2LjM2LDUuMDIsMTQuMTcsNS4wMiAgICAgIFY2LjQ4SDB6Ii8+JiN4YTsJCQk8L2c+JiN4YTsJCQk8ZyBpZD0ic2hhcGU0OTQ5LTUiIHRyYW5zZm9ybT0idHJhbnNsYXRlKDE0LjE3MDEpIj4mI3hhOwkJCQk8dGl0bGUgaWQ9InRpdGxlOTA3MTYiPnBhdGgzNjg4PC90aXRsZT4mI3hhOwkJCQk8cGF0aCBpZD0icGF0aDkwNzE4IiBpbmtzY2FwZTpjb25uZWN0b3ItY3VydmF0dXJlPSIwIiBzdHlsZT0iZmlsbDojNTlCM0Q4OyIgZD0iTTAsMzguOTVoMC4wOGM3Ljc1LDAsMTQuMDktMi4yNywxNC4wOS01LjE1ICAgICAgVjYuNDhIMFYzOC45NXoiLz4mI3hhOwkJCTwvZz4mI3hhOwkJCTxnIGlkPSJzaGFwZTQ5NTAtNyIgdHJhbnNmb3JtPSJ0cmFuc2xhdGUoMCwtMjcuMTE4MSkiPiYjeGE7CQkJCTx0aXRsZSBpZD0idGl0bGU5MDcyMSI+cGF0aDM2OTA8L3RpdGxlPiYjeGE7CQkJCTxwYXRoIGlkPSJwYXRoOTA3MjMiIGlua3NjYXBlOmNvbm5lY3Rvci1jdXJ2YXR1cmU9IjAiIHN0eWxlPSJmaWxsOiNGRkZGRkY7IiBkPSJNMjguNTEsMzMuNzljMCwyLjgtNi4zOSw1LjE2LTE0LjIyLDUuMTYgICAgICBDNi40NywzOC45NSwwLDM2LjU5LDAsMzMuNzlzNi4zOS01LjE3LDE0LjIyLTUuMTdTMjguNTEsMzAuOTgsMjguNTEsMzMuNzl6Ii8+JiN4YTsJCQk8L2c+JiN4YTsJCQk8ZyBpZD0ic2hhcGU0OTUxLTkiIHRyYW5zZm9ybT0idHJhbnNsYXRlKDIuODg3MTcsLTI5LjE2NjkpIj4mI3hhOwkJCQk8dGl0bGUgaWQ9InRpdGxlOTA3MjYiPnBhdGgzNjkyPC90aXRsZT4mI3hhOwkJCQk8cGF0aCBpZD0icGF0aDkwNzI4IiBpbmtzY2FwZTpjb25uZWN0b3ItY3VydmF0dXJlPSIwIiBzdHlsZT0iZmlsbDojN0ZCOTAwOyIgZD0iTTIyLjc0LDM1LjUzYzAsMS45LTUuMSwzLjQyLTExLjMzLDMuNDIgICAgICBDNS4xNywzOC45NSwwLDM3LjQ2LDAsMzUuNTNjMC0xLjkyLDUuMS0zLjQyLDExLjMzLTMuNDJDMTcuNTcsMzIuMTEsMjIuNzQsMzMuNjMsMjIuNzQsMzUuNTN6Ii8+JiN4YTsJCQk8L2c+JiN4YTsJCQk8ZyBpZD0ic2hhcGU0OTUyLTExIiB0cmFuc2Zvcm09InRyYW5zbGF0ZSgyLjg4NzE3LC0zMC41MzA3KSI+JiN4YTsJCQkJPHRpdGxlIGlkPSJ0aXRsZTkwNzMxIj5wYXRoMzY5NDwvdGl0bGU+JiN4YTsJCQkJPHBhdGggaWQ9InBhdGg5MDczMyIgaW5rc2NhcGU6Y29ubmVjdG9yLWN1cnZhdHVyZT0iMCIgc3R5bGU9ImZpbGw6I0I3RDMzMjsiIGQ9Ik0yMC4zLDM4Ljk1YzEuNTMtMC41OSwyLjM3LTEuMjksMi4zNy0yLjA1ICAgICAgYzAtMS45MS01LjEtMy40Mi0xMS4zMy0zLjQyQzUuMSwzMy40OCwwLDM0Ljk5LDAsMzYuOWMwLDAuNzYsMC45MiwxLjUyLDIuMzYsMi4wNWMyLjA2LTAuODQsNS4zMi0xLjI5LDguOTgtMS4yOSAgICAgIGMzLjA0LTAuMDcsNi4wNywwLjM3LDguOTcsMS4yOUgyMC4zeiIvPiYjeGE7CQkJCTxwYXRoIGlkPSJwYXRoOTA3MzUiIGlua3NjYXBlOmNvbm5lY3Rvci1jdXJ2YXR1cmU9IjAiIHN0eWxlPSJmaWxsOm5vbmU7IiBkPSJNMjAuMywzOC45NWMxLjUzLTAuNTksMi4zNy0xLjI5LDIuMzctMi4wNSAgICAgIGMwLTEuOTEtNS4xLTMuNDItMTEuMzMtMy40MkM1LjEsMzMuNDgsMCwzNC45OSwwLDM2LjljMCwwLjc2LDAuOTIsMS41MiwyLjM2LDIuMDVjMi4wNi0wLjg0LDUuMzItMS4yOSw4Ljk4LTEuMjkgICAgICBjMy4wNC0wLjA3LDYuMDcsMC4zNyw4Ljk3LDEuMjkiLz4mI3hhOwkJCTwvZz4mI3hhOwkJCTxnIGlkPSJncm91cDQ5NTMtMTQiIHRyYW5zZm9ybT0idHJhbnNsYXRlKDQuNjg3OTUsLTQuNjIzMDEpIj4mI3hhOwkJCQk8dGl0bGUgaWQ9InRpdGxlOTA3MzgiPkxheWVyXzM8L3RpdGxlPiYjeGE7CQkJCTxnIGlkPSJzaGFwZTQ5NTQtMTUiIHRyYW5zZm9ybT0idHJhbnNsYXRlKDAuMDM1NDI1NCkiPiYjeGE7CQkJCQk8dGl0bGUgaWQ9InRpdGxlOTA3NDAiPnBhdGgzNjk2PC90aXRsZT4mI3hhOwkJCQkJPHBhdGggaWQ9InBhdGg5MDc0MiIgaW5rc2NhcGU6Y29ubmVjdG9yLWN1cnZhdHVyZT0iMCIgc3R5bGU9ImZpbGw6IzMzNjc5MDsiIGQ9Ik0xNy41NCwzMS42OGMtMi4yNiwwLjQ3LTIuNDItMC4zLTIuNDItMC4zICAgICAgIGMyLjM2LTMuNTQsMy4zOS04LjA1LDIuNTMtOS4xNGMtMi4zNi0zLjAxLTYuNDMtMS41OS02LjUtMS41NWMtMC41LTAuMS0xLTAuMTUtMS41MS0wLjE2Yy0wLjg0LTAuMDQtMS42OCwwLjIxLTIuMzYsMC43MSAgICAgICBjMCwwLTcuMjgtMi45OC02Ljk2LDMuNzdjMC4wNywxLjQ0LDIuMDQsMTAuODcsNC40LDguMDJjMC44Ny0xLjAzLDEuNy0xLjkyLDEuNy0xLjkyYzAuNDIsMC4yOSwwLjkzLDAuNDIsMS40NCwwLjM3bDAuMDQtMC4wNCAgICAgICBjLTAuMDIsMC4xNC0wLjAyLDAuMjcsMCwwLjQxYy0wLjU5LDAuNjgtMC40MywwLjgtMS42NSwxLjA1Yy0xLjIzLDAuMjUtMC41MSwwLjcxLTAuMDQsMC44M2MxLjAzLDAuMzMsMi4xNi0wLjAzLDIuOC0wLjkxICAgICAgIGwtMC4wNCwwLjE0YzAuMjUsMC4xOSwwLjQxLDEuMjQsMC4zOCwyLjJjLTAuMDgsMC43MS0wLjAzLDEuNDMsMC4xNCwyLjEzYzAuMTksMC41MSwwLjM4LDEuNjYsMS45OSwxLjMyICAgICAgIGMxLjM0LTAuMjksMi4wMy0xLjA0LDIuMTMtMi4yOGMwLjA2LTAuODcsMC4yMi0wLjc0LDAuMjQtMS41NGwwLjEyLTAuMzdjMC4xNC0xLjE4LDAtMS41OCwwLjg1LTEuNGgwLjIgICAgICAgYzAuNjQsMC4wMywxLjI4LTAuMDgsMS44Ny0wLjMyYzEuMDEtMC40NiwxLjYtMS4yNCwwLjU5LTEuMDRMMTcuNTQsMzEuNjh6Ii8+JiN4YTsJCQkJPC9nPiYjeGE7CQkJCTxnIGlkPSJzaGFwZTQ5NTUtMTciIHRyYW5zZm9ybT0idHJhbnNsYXRlKDkuMTIyMDMsLTAuMzA3MDIpIj4mI3hhOwkJCQkJPHRpdGxlIGlkPSJ0aXRsZTkwNzQ1Ij5wYXRoMzY5ODwvdGl0bGU+JiN4YTsJCQkJCTxwYXRoIGlkPSJwYXRoOTA3NDciIGlua3NjYXBlOmNvbm5lY3Rvci1jdXJ2YXR1cmU9IjAiIHN0eWxlPSJmaWxsOm5vbmU7IiBkPSJNMC4wNiwzMi42N2MtMC4wNiwyLjIzLDAsNC40NywwLjI0LDUuMDIgICAgICAgYzAuMjMsMC45NSwxLjE5LDEuNTMsMi4xNCwxLjNjMC4wNS0wLjAxLDAuMS0wLjAzLDAuMTUtMC4wNGMxLjM0LTAuMjksMS44My0wLjg0LDIuMDQtMi4wN2MwLjE2LTAuOTEsMC40Ni0zLjQxLDAuNS0zLjkzICAgICAgIEwwLjA2LDMyLjY3eiIvPiYjeGE7CQkJCQkmI3hhOwkJCQkJCTxwYXRoIGlkPSJwYXRoOTA3NDkiIGlua3NjYXBlOmNvbm5lY3Rvci1jdXJ2YXR1cmU9IjAiIHN0eWxlPSJmaWxsOm5vbmU7c3Ryb2tlOiNGRkZGRkY7c3Ryb2tlLXdpZHRoOjAuNzY1O3N0cm9rZS1saW5lY2FwOnJvdW5kO3N0cm9rZS1saW5lam9pbjpyb3VuZDtzdHJva2UtbWl0ZXJsaW1pdDozOyIgZD0iICAgICAgIE0wLjA2LDMyLjY3Yy0wLjA2LDIuMjMsMCw0LjQ3LDAuMjQsNS4wMmMwLjIzLDAuOTUsMS4xOSwxLjUzLDIuMTQsMS4zYzAuMDUtMC4wMSwwLjEtMC4wMywwLjE1LTAuMDQgICAgICAgYzEuMzQtMC4yOSwxLjgzLTAuODQsMi4wNC0yLjA3YzAuMTYtMC45MSwwLjQ2LTMuNDEsMC41LTMuOTMiLz4mI3hhOwkJCQk8L2c+JiN4YTsJCQkJPGcgaWQ9InNoYXBlNDk1Ni0yMCIgdHJhbnNmb3JtPSJ0cmFuc2xhdGUoMCwtMy4wOTM4MSkiPiYjeGE7CQkJCQk8dGl0bGUgaWQ9InRpdGxlOTA3NTIiPnBhdGgzNzAwPC90aXRsZT4mI3hhOwkJCQkJPHBhdGggaWQ9InBhdGg5MDc1NCIgaW5rc2NhcGU6Y29ubmVjdG9yLWN1cnZhdHVyZT0iMCIgc3R5bGU9ImZpbGw6bm9uZTsiIGQ9Ik03LjI3LDI0LjI3YzAsMC03LjI3LTIuOTUtNi45MywzLjc5ICAgICAgIGMwLjA3LDEuNDYsMi4wNiwxMC44OSw0LjQyLDguMDJjMC44Ny0xLjA0LDEuNjUtMS44NiwxLjY1LTEuODZMNy4yNywyNC4yN3oiLz4mI3hhOwkJCQkJJiN4YTsJCQkJCQk8cGF0aCBpZD0icGF0aDkwNzU2IiBpbmtzY2FwZTpjb25uZWN0b3ItY3VydmF0dXJlPSIwIiBzdHlsZT0iZmlsbDpub25lO3N0cm9rZTojRkZGRkZGO3N0cm9rZS13aWR0aDowLjc2NTtzdHJva2UtbGluZWNhcDpyb3VuZDtzdHJva2UtbGluZWpvaW46cm91bmQ7c3Ryb2tlLW1pdGVybGltaXQ6MzsiIGQ9IiAgICAgICBNNy4yNywyNC4yN2MwLDAtNy4yNy0yLjk1LTYuOTMsMy43OWMwLjA3LDEuNDYsMi4wNiwxMC44OSw0LjQyLDguMDJjMC44Ny0xLjA0LDEuNjUtMS44NiwxLjY1LTEuODYiLz4mI3hhOwkJCQk8L2c+JiN4YTsJCQkJPGcgaWQ9InNoYXBlNDk1Ny0yMyIgdHJhbnNmb3JtPSJ0cmFuc2xhdGUoMTAuOTM0NiwtNy41OTg3NCkiPiYjeGE7CQkJCQk8dGl0bGUgaWQ9InRpdGxlOTA3NTkiPnBhdGgzNzAyPC90aXRsZT4mI3hhOwkJCQkJPHBhdGggaWQ9InBhdGg5MDc2MSIgaW5rc2NhcGU6Y29ubmVjdG9yLWN1cnZhdHVyZT0iMCIgc3R5bGU9ImZpbGw6bm9uZTsiIGQ9Ik0wLjI1LDI4LjI2QzAsMjguMzMsNC4yOSwyNi42OSw2Ljc1LDI5LjggICAgICAgYzAuODYsMS4xMS0wLjE0LDUuNjEtMi41Myw5LjE1TDAuMjUsMjguMjZ6Ii8+JiN4YTsJCQkJCSYjeGE7CQkJCQkJPHBhdGggaWQ9InBhdGg5MDc2MyIgaW5rc2NhcGU6Y29ubmVjdG9yLWN1cnZhdHVyZT0iMCIgc3R5bGU9ImZpbGw6bm9uZTtzdHJva2U6I0ZGRkZGRjtzdHJva2Utd2lkdGg6MC43NjU7c3Ryb2tlLWxpbmVjYXA6cm91bmQ7c3Ryb2tlLWxpbmVqb2luOnJvdW5kO3N0cm9rZS1taXRlcmxpbWl0OjM7IiBkPSIgICAgICAgTTAuMjUsMjguMjZDMCwyOC4zMyw0LjI5LDI2LjY5LDYuNzUsMjkuOGMwLjg2LDEuMTEtMC4xNCw1LjYxLTIuNTMsOS4xNSIvPiYjeGE7CQkJCTwvZz4mI3hhOwkJCQk8ZyBpZD0ic2hhcGU0OTU4LTI2IiB0cmFuc2Zvcm09InRyYW5zbGF0ZSg1LjI5MDE5LC01Ljc4MDI0KSI+JiN4YTsJCQkJCTx0aXRsZSBpZD0idGl0bGU5MDc2NiI+cGF0aDM3MDQ8L3RpdGxlPiYjeGE7CQkJCQk8cGF0aCBpZD0icGF0aDkwNzY4IiBpbmtzY2FwZTpjb25uZWN0b3ItY3VydmF0dXJlPSIwIiBzdHlsZT0iZmlsbDpub25lOyIgZD0iTTkuODUsMzcuMTNjMCwwLDAuMTYsMC43NywyLjQyLDAuMyAgICAgICBjMS0wLjIsMC40LDAuNTktMC41OSwxLjA0Yy0wLjgyLDAuMzktMi42NywwLjQ4LTIuNy0wLjA0Yy0wLjA4LTEuMzcsMC45Ny0wLjk2LDAuOS0xLjNjLTAuMDgtMC4zNC0wLjU0LTAuNTktMC44NS0xLjM2ICAgICAgIGMtMC4yNy0wLjY2LTMuNzMtNS43MSwwLjk1LTQuOTZjMC4xOC0wLjAzLTEuMjItNC40NS01LjYtNC41MkMwLDI2LjIyLDAuMTIsMzEuNjgsMC4xMiwzMS42OEw5Ljg1LDM3LjEzeiIvPiYjeGE7CQkJCQkmI3hhOwkJCQkJCTxwYXRoIGlkPSJwYXRoOTA3NzAiIGlua3NjYXBlOmNvbm5lY3Rvci1jdXJ2YXR1cmU9IjAiIHN0eWxlPSJmaWxsOm5vbmU7c3Ryb2tlOiNGRkZGRkY7c3Ryb2tlLXdpZHRoOjAuNzY1O3N0cm9rZS1saW5lY2FwOnJvdW5kO3N0cm9rZS1saW5lam9pbjpyb3VuZDtzdHJva2UtbWl0ZXJsaW1pdDozOyIgZD0iICAgICAgIE05Ljg1LDM3LjEzYzAsMCwwLjE2LDAuNzcsMi40MiwwLjNjMS0wLjIsMC40LDAuNTktMC41OSwxLjA0Yy0wLjgyLDAuMzktMi42NywwLjQ4LTIuNy0wLjA0Yy0wLjA4LTEuMzcsMC45Ny0wLjk2LDAuOS0xLjMgICAgICAgYy0wLjA4LTAuMzQtMC41NC0wLjU5LTAuODUtMS4zNmMtMC4yNy0wLjY2LTMuNzMtNS43MSwwLjk1LTQuOTZjMC4xOC0wLjAzLTEuMjItNC40NS01LjYtNC41MkMwLDI2LjIyLDAuMTIsMzEuNjgsMC4xMiwzMS42OCIvPiYjeGE7CQkJCTwvZz4mI3hhOwkJCQk8ZyBpZD0ic2hhcGU0OTU5LTI5IiB0cmFuc2Zvcm09InRyYW5zbGF0ZSg1LjA4OTQ0LC01LjI2NjU3KSI+JiN4YTsJCQkJCTx0aXRsZSBpZD0idGl0bGU5MDc3MyI+cGF0aDM3MDY8L3RpdGxlPiYjeGE7CQkJCQkmI3hhOwkJCQkJCTxwYXRoIGlkPSJwYXRoOTA3NzUiIGlua3NjYXBlOmNvbm5lY3Rvci1jdXJ2YXR1cmU9IjAiIHN0eWxlPSJmaWxsOm5vbmU7c3Ryb2tlOiNGRkZGRkY7c3Ryb2tlLXdpZHRoOjAuNzY1O3N0cm9rZS1saW5lY2FwOnJvdW5kO3N0cm9rZS1saW5lam9pbjpyb3VuZDtzdHJva2UtbWl0ZXJsaW1pdDozOyIgZD0iICAgICAgIE0yLjg4LDM3LjA3Yy0wLjYsMC42OS0wLjQ0LDAuODEtMS42NiwxLjA1QzAsMzguMzcsMC43MSwzOC44MywxLjE5LDM4Ljk1YzEuMDMsMC4zMywyLjE2LTAuMDMsMi44LTAuOTEgICAgICAgYzAuMjItMC40MSwwLjA2LTAuOTItMC4zNS0xLjEzYzAsMCwwLDAsMCwwbC0wLjAzLDBjLTAuMjUtMC4xNC0wLjU4LTAuMDctMC43NCwwLjE4TDIuODgsMzcuMDd6Ii8+JiN4YTsJCQkJPC9nPiYjeGE7CQkJCTxnIGlkPSJzaGFwZTQ5NjAtMzEiIHRyYW5zZm9ybT0idHJhbnNsYXRlKDUuMzQ5MjMsLTcuMTQ0MTEpIj4mI3hhOwkJCQkJPHRpdGxlIGlkPSJ0aXRsZTkwNzc4Ij5wYXRoMzcwODwvdGl0bGU+JiN4YTsJCQkJCTxwYXRoIGlkPSJwYXRoOTA3ODAiIGlua3NjYXBlOmNvbm5lY3Rvci1jdXJ2YXR1cmU9IjAiIHN0eWxlPSJmaWxsOm5vbmU7IiBkPSJNMi41NywzOC45NWMwLTAuNSwwLjEyLTAuOTksMC4zNC0xLjQzICAgICAgIGMwLjMxLTAuODQsMS4wMy0xLjY4LDAuNDYtNC4zNGMtMC40NC0xLjk4LTMuMzEtMC40MS0zLjMxLTAuMTRDMC4xMywzMy45MiwwLjExLDM0LjgsMCwzNS42N2MtMC4yNSwxLjM1LDAuNjQsMi42NCwxLjk5LDIuODkgICAgICAgYzAuMTgsMC4wMywwLjM3LDAuMDUsMC41NSwwLjA0TDIuNTcsMzguOTV6Ii8+JiN4YTsJCQkJCSYjeGE7CQkJCQkJPHBhdGggaWQ9InBhdGg5MDc4MiIgaW5rc2NhcGU6Y29ubmVjdG9yLWN1cnZhdHVyZT0iMCIgc3R5bGU9ImZpbGw6bm9uZTtzdHJva2U6I0ZGRkZGRjtzdHJva2Utd2lkdGg6MC43NjU7c3Ryb2tlLWxpbmVjYXA6cm91bmQ7c3Ryb2tlLWxpbmVqb2luOnJvdW5kO3N0cm9rZS1taXRlcmxpbWl0OjM7IiBkPSIgICAgICAgTTIuNTcsMzguOTVjMC0wLjUsMC4xMi0wLjk5LDAuMzQtMS40M2MwLjMxLTAuODQsMS4wMy0xLjY4LDAuNDYtNC4zNGMtMC40NC0xLjk4LTMuMzEtMC40MS0zLjMxLTAuMTQgICAgICAgQzAuMTMsMzMuOTIsMC4xMSwzNC44LDAsMzUuNjdjLTAuMjUsMS4zNSwwLjY0LDIuNjQsMS45OSwyLjg5YzAuMTgsMC4wMywwLjM3LDAuMDUsMC41NSwwLjA0Ii8+JiN4YTsJCQkJPC9nPiYjeGE7CQkJCTxnIGlkPSJzaGFwZTQ5NjEtMzQiIHRyYW5zZm9ybT0idHJhbnNsYXRlKDcuMjM4NTgsLTEyLjcyMzYpIj4mI3hhOwkJCQkJPHRpdGxlIGlkPSJ0aXRsZTkwNzg1Ij5wYXRoMzcxMDwvdGl0bGU+JiN4YTsJCQkJCSYjeGE7CQkJCQkJPHBhdGggaWQ9InBhdGg5MDc4NyIgaW5rc2NhcGU6Y29ubmVjdG9yLWN1cnZhdHVyZT0iMCIgc3R5bGU9ImZpbGw6I0ZGRkZGRjtzdHJva2U6I0ZGRkZGRjtzdHJva2Utd2lkdGg6MC40MTI1O3N0cm9rZS1saW5lY2FwOnNxdWFyZTtzdHJva2UtbWl0ZXJsaW1pdDozOyIgZD0iICAgICAgIE0wLDM4LjU4YzAsMC4wOSwwLjE3LDAuMzQsMC40LDAuMzdjMC4xOSwwLjAyLDAuMzctMC4wOCwwLjQ1LTAuMjVjMC0wLjA5LTAuMTctMC4xOS0wLjQtMC4yMlMwLjAxLDM4LjQ4LDAsMzguNTh6Ii8+JiN4YTsJCQkJPC9nPiYjeGE7CQkJCTxnIGlkPSJzaGFwZTQ5NjItMzYiIHRyYW5zZm9ybT0idHJhbnNsYXRlKDEzLjU2MiwtMTIuOTEyNSkiPiYjeGE7CQkJCQk8dGl0bGUgaWQ9InRpdGxlOTA3OTAiPnBhdGgzNzEyPC90aXRsZT4mI3hhOwkJCQkJJiN4YTsJCQkJCQk8cGF0aCBpZD0icGF0aDkwNzkyIiBpbmtzY2FwZTpjb25uZWN0b3ItY3VydmF0dXJlPSIwIiBzdHlsZT0iZmlsbDojRkZGRkZGO3N0cm9rZTojRkZGRkZGO3N0cm9rZS13aWR0aDowLjIxO3N0cm9rZS1saW5lY2FwOnNxdWFyZTtzdHJva2UtbWl0ZXJsaW1pdDozOyIgZD0iICAgICAgIE0wLjg1LDM4LjU4YzAsMC4wOS0wLjE3LDAuMzQtMC40LDAuMzdDMC4yNiwzOC45NywwLjA4LDM4Ljg3LDAsMzguN2MwLTAuMDksMC4xNy0wLjE5LDAuNC0wLjIyUzAuODQsMzguNDgsMC44NSwzOC41OHoiLz4mI3hhOwkJCQk8L2c+JiN4YTsJCQkJPGcgaWQ9InNoYXBlNDk2My0zOCIgdHJhbnNmb3JtPSJ0cmFuc2xhdGUoMTQuNzQ4OCwtOC4yNzc3MikiPiYjeGE7CQkJCQk8dGl0bGUgaWQ9InRpdGxlOTA3OTUiPnBhdGgzNzE0PC90aXRsZT4mI3hhOwkJCQkJPHBhdGggaWQ9InBhdGg5MDc5NyIgaW5rc2NhcGU6Y29ubmVjdG9yLWN1cnZhdHVyZT0iMCIgc3R5bGU9ImZpbGw6bm9uZTsiIGQ9Ik0wLjUsMzMuMzFjMC4wNCwwLjcyLTAuMTUsMS4xOC0wLjE4LDEuOTggICAgICAgQzAuMjksMzYuNDEsMC44NiwzNy42NSwwLDM4Ljk1TDAuNSwzMy4zMXoiLz4mI3hhOwkJCQkJJiN4YTsJCQkJCQk8cGF0aCBpZD0icGF0aDkwNzk5IiBpbmtzY2FwZTpjb25uZWN0b3ItY3VydmF0dXJlPSIwIiBzdHlsZT0iZmlsbDpub25lO3N0cm9rZTojRkZGRkZGO3N0cm9rZS13aWR0aDowLjc2NTtzdHJva2UtbGluZWNhcDpyb3VuZDtzdHJva2UtbGluZWpvaW46cm91bmQ7c3Ryb2tlLW1pdGVybGltaXQ6MzsiIGQ9IiAgICAgICBNMC41LDMzLjMxYzAuMDQsMC43Mi0wLjE1LDEuMTgtMC4xOCwxLjk4QzAuMjksMzYuNDEsMC44NiwzNy42NSwwLDM4Ljk1Ii8+JiN4YTsJCQkJPC9nPiYjeGE7CQkJPC9nPiYjeGE7CQk8L2c+JiN4YTsJPC9nPiYjeGE7PC9nPiYjeGE7PC9zdmc+;" vertex="1" parent="1">
          <mxGeometry x="558.06" y="1022.5" width="62.7" height="80" as="geometry" />
        </mxCell>
        <mxCell id="50amSMv1iNsi5kxEuf1A-42" value="File System" style="shape=image;verticalLabelPosition=bottom;verticalAlign=top;imageAspect=0;aspect=fixed;image=data:image/svg+xml,PHN2ZyB4bWxuczpkYz0iaHR0cDovL3B1cmwub3JnL2RjL2VsZW1lbnRzLzEuMS8iIHhtbG5zOmNjPSJodHRwOi8vY3JlYXRpdmVjb21tb25zLm9yZy9ucyMiIHhtbG5zOnJkZj0iaHR0cDovL3d3dy53My5vcmcvMTk5OS8wMi8yMi1yZGYtc3ludGF4LW5zIyIgeG1sbnM6c3ZnPSJodHRwOi8vd3d3LnczLm9yZy8yMDAwL3N2ZyIgeG1sbnM9Imh0dHA6Ly93d3cudzMub3JnLzIwMDAvc3ZnIiB4bWxuczpzb2RpcG9kaT0iaHR0cDovL3NvZGlwb2RpLnNvdXJjZWZvcmdlLm5ldC9EVEQvc29kaXBvZGktMC5kdGQiIHhtbG5zOmlua3NjYXBlPSJodHRwOi8vd3d3Lmlua3NjYXBlLm9yZy9uYW1lc3BhY2VzL2lua3NjYXBlIiB2ZXJzaW9uPSIxLjEiIGlkPSJMYXllcl8xIiB4PSIwcHgiIHk9IjBweCIgd2lkdGg9IjUwIiBoZWlnaHQ9IjQyLjkwMDAwMiIgdmlld0JveD0iMCAwIDUwIDQyLjkwMDAwMiIgZW5hYmxlLWJhY2tncm91bmQ9Im5ldyAwIDAgNTAgNTAiIHhtbDpzcGFjZT0icHJlc2VydmUiIHNvZGlwb2RpOmRvY25hbWU9InN0b3JhZ2VfYWNjb3VudHNfY2xhc3NpYy5zdmciIGlua3NjYXBlOnZlcnNpb249IjAuOTIuMyAoMjQwNTU0NiwgMjAxOC0wMy0xMSkiPjxtZXRhZGF0YSBpZD0ibWV0YWRhdGExMDgwOSI+PHJkZjpSREY+PGNjOldvcmsgcmRmOmFib3V0PSIiPjxkYzpmb3JtYXQ+aW1hZ2Uvc3ZnK3htbDwvZGM6Zm9ybWF0PjxkYzp0eXBlIHJkZjpyZXNvdXJjZT0iaHR0cDovL3B1cmwub3JnL2RjL2RjbWl0eXBlL1N0aWxsSW1hZ2UiLz48ZGM6dGl0bGUvPjwvY2M6V29yaz48L3JkZjpSREY+PC9tZXRhZGF0YT48ZGVmcyBpZD0iZGVmczEwODA3Ii8+PHNvZGlwb2RpOm5hbWVkdmlldyBwYWdlY29sb3I9IiNmZmZmZmYiIGJvcmRlcmNvbG9yPSIjNjY2NjY2IiBib3JkZXJvcGFjaXR5PSIxIiBvYmplY3R0b2xlcmFuY2U9IjEwIiBncmlkdG9sZXJhbmNlPSIxMCIgZ3VpZGV0b2xlcmFuY2U9IjEwIiBpbmtzY2FwZTpwYWdlb3BhY2l0eT0iMCIgaW5rc2NhcGU6cGFnZXNoYWRvdz0iMiIgaW5rc2NhcGU6d2luZG93LXdpZHRoPSIxOTIwIiBpbmtzY2FwZTp3aW5kb3ctaGVpZ2h0PSIxMDE3IiBpZD0ibmFtZWR2aWV3MTA4MDUiIHNob3dncmlkPSJmYWxzZSIgZml0LW1hcmdpbi10b3A9IjAiIGZpdC1tYXJnaW4tbGVmdD0iMCIgZml0LW1hcmdpbi1yaWdodD0iMCIgZml0LW1hcmdpbi1ib3R0b209IjAiIGlua3NjYXBlOnpvb209IjE3IiBpbmtzY2FwZTpjeD0iMjUiIGlua3NjYXBlOmN5PSIyMiIgaW5rc2NhcGU6d2luZG93LXg9Ii04IiBpbmtzY2FwZTp3aW5kb3cteT0iLTgiIGlua3NjYXBlOndpbmRvdy1tYXhpbWl6ZWQ9IjEiIGlua3NjYXBlOmN1cnJlbnQtbGF5ZXI9IkxheWVyXzEiLz4mI3hhOzxwYXRoIGQ9Im0gMCw0MSBjIDAsMSAwLjgsMS45IDEuOCwxLjkgaCA0Ni4zIGMgMSwwIDEuOSwtMC44IDEuOSwtMS45IFYgNy45IEggMCBaIiBpZD0icGF0aDEwNzk0IiBpbmtzY2FwZTpjb25uZWN0b3ItY3VydmF0dXJlPSIwIiBzdHlsZT0iZmlsbDojNTliNGQ5Ii8+JiN4YTs8cGF0aCBkPSJNIDQ4LjEsMCBIIDEuOCBDIDAuOCwwIDAsMC45IDAsMS45IHYgNiBoIDUwIHYgLTYgYyAwLC0xIC0wLjgsLTEuNiAtMS45LC0xLjYiIGlkPSJwYXRoMTA3OTYiIGlua3NjYXBlOmNvbm5lY3Rvci1jdXJ2YXR1cmU9IjAiIHN0eWxlPSJmaWxsOiMwMDcyYzYiLz4mI3hhOzxyZWN0IHg9IjQiIHk9IjIxLjQiIHdpZHRoPSI0MiIgaGVpZ2h0PSI3IiBpZD0icmVjdDEwNzk4IiBzdHlsZT0iZmlsbDojMDA3MmM2Ii8+JiN4YTs8cmVjdCB4PSI0IiB5PSIxMC45IiB3aWR0aD0iNDIiIGhlaWdodD0iNyIgaWQ9InJlY3QxMDgwMCIgc3R5bGU9ImZpbGw6I2ZmZmZmZiIvPiYjeGE7PHJlY3QgeD0iNCIgeT0iMzEuOSIgd2lkdGg9IjQyIiBoZWlnaHQ9IjciIGlkPSJyZWN0MTA4MDIiIHN0eWxlPSJmaWxsOiMwMDcyYzYiLz4mI3hhOzwvc3ZnPg==;dashed=1;strokeColor=default;fontFamily=Verdana;fillColor=#7DD8FF;gradientColor=#F2F2F2;" vertex="1" parent="1">
          <mxGeometry x="832" y="1029" width="77.91" height="67" as="geometry" />
        </mxCell>
        <mxCell id="50amSMv1iNsi5kxEuf1A-43" value="DICOM Web Core Services" style="aspect=fixed;html=1;points=[];align=center;image;fontSize=12;image=img/lib/azure2/compute/App_Services.svg;" vertex="1" parent="1">
          <mxGeometry x="1113" y="743" width="64" height="64" as="geometry" />
        </mxCell>
        <mxCell id="50amSMv1iNsi5kxEuf1A-45" value="Patients" style="shape=image;verticalLabelPosition=bottom;verticalAlign=top;imageAspect=0;aspect=fixed;image=data:image/svg+xml,PHN2ZyB4bWxuczpkYz0iaHR0cDovL3B1cmwub3JnL2RjL2VsZW1lbnRzLzEuMS8iIHhtbG5zOmNjPSJodHRwOi8vY3JlYXRpdmVjb21tb25zLm9yZy9ucyMiIHhtbG5zOnJkZj0iaHR0cDovL3d3dy53My5vcmcvMTk5OS8wMi8yMi1yZGYtc3ludGF4LW5zIyIgeG1sbnM6c3ZnPSJodHRwOi8vd3d3LnczLm9yZy8yMDAwL3N2ZyIgeG1sbnM9Imh0dHA6Ly93d3cudzMub3JnLzIwMDAvc3ZnIiB4bWxuczpzb2RpcG9kaT0iaHR0cDovL3NvZGlwb2RpLnNvdXJjZWZvcmdlLm5ldC9EVEQvc29kaXBvZGktMC5kdGQiIHhtbG5zOmlua3NjYXBlPSJodHRwOi8vd3d3Lmlua3NjYXBlLm9yZy9uYW1lc3BhY2VzL2lua3NjYXBlIiB2ZXJzaW9uPSIxLjEiIGlkPSJMYXllcl8xIiB4PSIwcHgiIHk9IjBweCIgd2lkdGg9IjQ1IiBoZWlnaHQ9IjUwIiB2aWV3Qm94PSIwIDAgNDUgNTAiIGVuYWJsZS1iYWNrZ3JvdW5kPSJuZXcgMCAwIDUwIDUwIiB4bWw6c3BhY2U9InByZXNlcnZlIiBzb2RpcG9kaTpkb2NuYW1lPSJyZXNvdXJjZS5zdmciIGlua3NjYXBlOnZlcnNpb249IjAuOTIuMyAoMjQwNTU0NiwgMjAxOC0wMy0xMSkiPjxtZXRhZGF0YSBpZD0ibWV0YWRhdGExMTAwMiI+PHJkZjpSREY+PGNjOldvcmsgcmRmOmFib3V0PSIiPjxkYzpmb3JtYXQ+aW1hZ2Uvc3ZnK3htbDwvZGM6Zm9ybWF0PjxkYzp0eXBlIHJkZjpyZXNvdXJjZT0iaHR0cDovL3B1cmwub3JnL2RjL2RjbWl0eXBlL1N0aWxsSW1hZ2UiLz48ZGM6dGl0bGUvPjwvY2M6V29yaz48L3JkZjpSREY+PC9tZXRhZGF0YT48ZGVmcyBpZD0iZGVmczExMDAwIi8+PHNvZGlwb2RpOm5hbWVkdmlldyBwYWdlY29sb3I9IiNmZmZmZmYiIGJvcmRlcmNvbG9yPSIjNjY2NjY2IiBib3JkZXJvcGFjaXR5PSIxIiBvYmplY3R0b2xlcmFuY2U9IjEwIiBncmlkdG9sZXJhbmNlPSIxMCIgZ3VpZGV0b2xlcmFuY2U9IjEwIiBpbmtzY2FwZTpwYWdlb3BhY2l0eT0iMCIgaW5rc2NhcGU6cGFnZXNoYWRvdz0iMiIgaW5rc2NhcGU6d2luZG93LXdpZHRoPSIxOTIwIiBpbmtzY2FwZTp3aW5kb3ctaGVpZ2h0PSIxMDE3IiBpZD0ibmFtZWR2aWV3MTA5OTgiIHNob3dncmlkPSJmYWxzZSIgZml0LW1hcmdpbi10b3A9IjAiIGZpdC1tYXJnaW4tbGVmdD0iMCIgZml0LW1hcmdpbi1yaWdodD0iMCIgZml0LW1hcmdpbi1ib3R0b209IjAiIGlua3NjYXBlOnpvb209IjE3IiBpbmtzY2FwZTpjeD0iMjIiIGlua3NjYXBlOmN5PSIyNSIgaW5rc2NhcGU6d2luZG93LXg9Ii04IiBpbmtzY2FwZTp3aW5kb3cteT0iLTgiIGlua3NjYXBlOndpbmRvdy1tYXhpbWl6ZWQ9IjEiIGlua3NjYXBlOmN1cnJlbnQtbGF5ZXI9IkxheWVyXzEiLz4mI3hhOzxwYXRoIGQ9Im0gMjIuNTYxLDIzLjE2NyBjIC0wLjEwMywwIC0wLjE5NywtMC4wMyAtMC4yODgsLTAuMDgzIEwgMy4wMTEsMTIuMDQ1IEMgMi44MjgsMTEuOTQyIDIuNzE5LDExLjc0OCAyLjcxOSwxMS41MzkgYyAwLC0wLjIwMyAwLjEwOCwtMC4zOTUgMC4yOTIsLTAuNDk2IEwgMjIuMTQ5LDAuMDc1IGMgMC4xODIsLTAuMSAwLjQwNSwtMC4xIDAuNTc5LDAgTCA0MS45OTQsMTEuMTIgYyAwLjE3NCwwLjEwMiAwLjI5LDAuMjkxIDAuMjksMC40OTYgMCwwLjIxMiAtMC4xMTYsMC40IC0wLjI5LDAuNTA0IEwgMjIuODUzLDIzLjA4NCBjIC0wLjA5MSwwLjA1MyAtMC4xODgsMC4wODMgLTAuMjkyLDAuMDgzIiBpZD0icGF0aDEwOTg5IiBpbmtzY2FwZTpjb25uZWN0b3ItY3VydmF0dXJlPSIwIiBzdHlsZT0iZmlsbDojMzk5OWM2Ii8+JiN4YTs8cGF0aCBkPSJtIDE5Ljc5Miw1MCBjIC0wLjEwNCwwIC0wLjIwNywtMC4wMjQgLTAuMjk1LC0wLjA3NyBMIDAuMjk1LDM4LjkxNyBDIDAuMTEsMzguODE0IDAsMzguNjI2IDAsMzguNDE2IFYgMTYuMzMxIGMgMCwtMC4yMDcgMC4xMSwtMC4zOTcgMC4yOTUsLTAuNTA2IDAuMTc2LC0wLjEgMC40MDEsLTAuMSAwLjU4NiwwIEwgMjAuMDgsMjYuODMxIGMgMC4xNzgsMC4xMDcgMC4yODYsMC4yOTcgMC4yODYsMC41MDQgdiAyMi4wODYgYyAwLDAuMjEyIC0wLjEwOCwwLjM5NyAtMC4yODYsMC41MDIgQyAxOS45ODUsNDkuOTc2IDE5Ljg4OCw1MCAxOS43OTIsNTAiIGlkPSJwYXRoMTA5OTEiIGlua3NjYXBlOmNvbm5lY3Rvci1jdXJ2YXR1cmU9IjAiIHN0eWxlPSJmaWxsOiM1OWI0ZDkiLz4mI3hhOzxwYXRoIGQ9Ik0gMjUuMjI1LDUwIEMgMjUuMTI3LDUwIDI1LjAyNiw0OS45NzYgMjQuOTMsNDkuOTIzIDI0Ljc1Miw0OS44MTggMjQuNjQyLDQ5LjYzNCAyNC42NDIsNDkuNDIxIFYgMjcuNDc4IGMgMCwtMC4yMDcgMC4xMSwtMC4zOTcgMC4yODgsLTAuNTA0IEwgNDQuMTI2LDE1Ljk3MiBjIDAuMTg1LC0wLjEwMiAwLjQwMywtMC4xMDIgMC41ODcsMCAwLjE3NiwwLjEwMyAwLjI4NywwLjI5NSAwLjI4NywwLjUgdiAyMS45NDMgYyAwLDAuMjExIC0wLjExMSwwLjM5OCAtMC4yODcsMC41MDIgTCAyNS41MTEsNDkuOTIzIEMgMjUuNDI5LDQ5Ljk3NiAyNS4zMjUsNTAgMjUuMjI1LDUwIiBpZD0icGF0aDEwOTkzIiBpbmtzY2FwZTpjb25uZWN0b3ItY3VydmF0dXJlPSIwIiBzdHlsZT0iZmlsbDojNTliNGQ5Ii8+JiN4YTs8cGF0aCBkPSJNIDI1LjIyNSw1MCBDIDI1LjEyNyw1MCAyNS4wMjYsNDkuOTc2IDI0LjkzLDQ5LjkyMyAyNC43NTIsNDkuODE4IDI0LjY0Miw0OS42MzQgMjQuNjQyLDQ5LjQyMSBWIDI3LjQ3OCBjIDAsLTAuMjA3IDAuMTEsLTAuMzk3IDAuMjg4LC0wLjUwNCBMIDQ0LjEyNiwxNS45NzIgYyAwLjE4NSwtMC4xMDIgMC40MDMsLTAuMTAyIDAuNTg3LDAgMC4xNzYsMC4xMDMgMC4yODcsMC4yOTUgMC4yODcsMC41IHYgMjEuOTQzIGMgMCwwLjIxMSAtMC4xMTEsMC4zOTggLTAuMjg3LDAuNTAyIEwgMjUuNTExLDQ5LjkyMyBDIDI1LjQyOSw0OS45NzYgMjUuMzI1LDUwIDI1LjIyNSw1MCIgaWQ9InBhdGgxMDk5NSIgaW5rc2NhcGU6Y29ubmVjdG9yLWN1cnZhdHVyZT0iMCIgc3R5bGU9Im9wYWNpdHk6MC41O2ZpbGw6I2ZmZmZmZiIvPiYjeGE7PC9zdmc+;dashed=1;strokeColor=default;fontFamily=Verdana;fillColor=#7DD8FF;gradientColor=#FFFFFF;" vertex="1" parent="1">
          <mxGeometry x="383" y="731" width="54.9" height="61" as="geometry" />
        </mxCell>
        <mxCell id="50amSMv1iNsi5kxEuf1A-47" value="Scans" style="shape=image;verticalLabelPosition=bottom;verticalAlign=top;imageAspect=0;aspect=fixed;image=data:image/svg+xml,PHN2ZyB4bWxuczpkYz0iaHR0cDovL3B1cmwub3JnL2RjL2VsZW1lbnRzLzEuMS8iIHhtbG5zOmNjPSJodHRwOi8vY3JlYXRpdmVjb21tb25zLm9yZy9ucyMiIHhtbG5zOnJkZj0iaHR0cDovL3d3dy53My5vcmcvMTk5OS8wMi8yMi1yZGYtc3ludGF4LW5zIyIgeG1sbnM6c3ZnPSJodHRwOi8vd3d3LnczLm9yZy8yMDAwL3N2ZyIgeG1sbnM9Imh0dHA6Ly93d3cudzMub3JnLzIwMDAvc3ZnIiB4bWxuczpzb2RpcG9kaT0iaHR0cDovL3NvZGlwb2RpLnNvdXJjZWZvcmdlLm5ldC9EVEQvc29kaXBvZGktMC5kdGQiIHhtbG5zOmlua3NjYXBlPSJodHRwOi8vd3d3Lmlua3NjYXBlLm9yZy9uYW1lc3BhY2VzL2lua3NjYXBlIiB2ZXJzaW9uPSIxLjEiIGlkPSJMYXllcl8xIiB4PSIwcHgiIHk9IjBweCIgd2lkdGg9IjQ1IiBoZWlnaHQ9IjUwIiB2aWV3Qm94PSIwIDAgNDUgNTAiIGVuYWJsZS1iYWNrZ3JvdW5kPSJuZXcgMCAwIDUwIDUwIiB4bWw6c3BhY2U9InByZXNlcnZlIiBzb2RpcG9kaTpkb2NuYW1lPSJyZXNvdXJjZS5zdmciIGlua3NjYXBlOnZlcnNpb249IjAuOTIuMyAoMjQwNTU0NiwgMjAxOC0wMy0xMSkiPjxtZXRhZGF0YSBpZD0ibWV0YWRhdGExMTAwMiI+PHJkZjpSREY+PGNjOldvcmsgcmRmOmFib3V0PSIiPjxkYzpmb3JtYXQ+aW1hZ2Uvc3ZnK3htbDwvZGM6Zm9ybWF0PjxkYzp0eXBlIHJkZjpyZXNvdXJjZT0iaHR0cDovL3B1cmwub3JnL2RjL2RjbWl0eXBlL1N0aWxsSW1hZ2UiLz48ZGM6dGl0bGUvPjwvY2M6V29yaz48L3JkZjpSREY+PC9tZXRhZGF0YT48ZGVmcyBpZD0iZGVmczExMDAwIi8+PHNvZGlwb2RpOm5hbWVkdmlldyBwYWdlY29sb3I9IiNmZmZmZmYiIGJvcmRlcmNvbG9yPSIjNjY2NjY2IiBib3JkZXJvcGFjaXR5PSIxIiBvYmplY3R0b2xlcmFuY2U9IjEwIiBncmlkdG9sZXJhbmNlPSIxMCIgZ3VpZGV0b2xlcmFuY2U9IjEwIiBpbmtzY2FwZTpwYWdlb3BhY2l0eT0iMCIgaW5rc2NhcGU6cGFnZXNoYWRvdz0iMiIgaW5rc2NhcGU6d2luZG93LXdpZHRoPSIxOTIwIiBpbmtzY2FwZTp3aW5kb3ctaGVpZ2h0PSIxMDE3IiBpZD0ibmFtZWR2aWV3MTA5OTgiIHNob3dncmlkPSJmYWxzZSIgZml0LW1hcmdpbi10b3A9IjAiIGZpdC1tYXJnaW4tbGVmdD0iMCIgZml0LW1hcmdpbi1yaWdodD0iMCIgZml0LW1hcmdpbi1ib3R0b209IjAiIGlua3NjYXBlOnpvb209IjE3IiBpbmtzY2FwZTpjeD0iMjIiIGlua3NjYXBlOmN5PSIyNSIgaW5rc2NhcGU6d2luZG93LXg9Ii04IiBpbmtzY2FwZTp3aW5kb3cteT0iLTgiIGlua3NjYXBlOndpbmRvdy1tYXhpbWl6ZWQ9IjEiIGlua3NjYXBlOmN1cnJlbnQtbGF5ZXI9IkxheWVyXzEiLz4mI3hhOzxwYXRoIGQ9Im0gMjIuNTYxLDIzLjE2NyBjIC0wLjEwMywwIC0wLjE5NywtMC4wMyAtMC4yODgsLTAuMDgzIEwgMy4wMTEsMTIuMDQ1IEMgMi44MjgsMTEuOTQyIDIuNzE5LDExLjc0OCAyLjcxOSwxMS41MzkgYyAwLC0wLjIwMyAwLjEwOCwtMC4zOTUgMC4yOTIsLTAuNDk2IEwgMjIuMTQ5LDAuMDc1IGMgMC4xODIsLTAuMSAwLjQwNSwtMC4xIDAuNTc5LDAgTCA0MS45OTQsMTEuMTIgYyAwLjE3NCwwLjEwMiAwLjI5LDAuMjkxIDAuMjksMC40OTYgMCwwLjIxMiAtMC4xMTYsMC40IC0wLjI5LDAuNTA0IEwgMjIuODUzLDIzLjA4NCBjIC0wLjA5MSwwLjA1MyAtMC4xODgsMC4wODMgLTAuMjkyLDAuMDgzIiBpZD0icGF0aDEwOTg5IiBpbmtzY2FwZTpjb25uZWN0b3ItY3VydmF0dXJlPSIwIiBzdHlsZT0iZmlsbDojMzk5OWM2Ii8+JiN4YTs8cGF0aCBkPSJtIDE5Ljc5Miw1MCBjIC0wLjEwNCwwIC0wLjIwNywtMC4wMjQgLTAuMjk1LC0wLjA3NyBMIDAuMjk1LDM4LjkxNyBDIDAuMTEsMzguODE0IDAsMzguNjI2IDAsMzguNDE2IFYgMTYuMzMxIGMgMCwtMC4yMDcgMC4xMSwtMC4zOTcgMC4yOTUsLTAuNTA2IDAuMTc2LC0wLjEgMC40MDEsLTAuMSAwLjU4NiwwIEwgMjAuMDgsMjYuODMxIGMgMC4xNzgsMC4xMDcgMC4yODYsMC4yOTcgMC4yODYsMC41MDQgdiAyMi4wODYgYyAwLDAuMjEyIC0wLjEwOCwwLjM5NyAtMC4yODYsMC41MDIgQyAxOS45ODUsNDkuOTc2IDE5Ljg4OCw1MCAxOS43OTIsNTAiIGlkPSJwYXRoMTA5OTEiIGlua3NjYXBlOmNvbm5lY3Rvci1jdXJ2YXR1cmU9IjAiIHN0eWxlPSJmaWxsOiM1OWI0ZDkiLz4mI3hhOzxwYXRoIGQ9Ik0gMjUuMjI1LDUwIEMgMjUuMTI3LDUwIDI1LjAyNiw0OS45NzYgMjQuOTMsNDkuOTIzIDI0Ljc1Miw0OS44MTggMjQuNjQyLDQ5LjYzNCAyNC42NDIsNDkuNDIxIFYgMjcuNDc4IGMgMCwtMC4yMDcgMC4xMSwtMC4zOTcgMC4yODgsLTAuNTA0IEwgNDQuMTI2LDE1Ljk3MiBjIDAuMTg1LC0wLjEwMiAwLjQwMywtMC4xMDIgMC41ODcsMCAwLjE3NiwwLjEwMyAwLjI4NywwLjI5NSAwLjI4NywwLjUgdiAyMS45NDMgYyAwLDAuMjExIC0wLjExMSwwLjM5OCAtMC4yODcsMC41MDIgTCAyNS41MTEsNDkuOTIzIEMgMjUuNDI5LDQ5Ljk3NiAyNS4zMjUsNTAgMjUuMjI1LDUwIiBpZD0icGF0aDEwOTkzIiBpbmtzY2FwZTpjb25uZWN0b3ItY3VydmF0dXJlPSIwIiBzdHlsZT0iZmlsbDojNTliNGQ5Ii8+JiN4YTs8cGF0aCBkPSJNIDI1LjIyNSw1MCBDIDI1LjEyNyw1MCAyNS4wMjYsNDkuOTc2IDI0LjkzLDQ5LjkyMyAyNC43NTIsNDkuODE4IDI0LjY0Miw0OS42MzQgMjQuNjQyLDQ5LjQyMSBWIDI3LjQ3OCBjIDAsLTAuMjA3IDAuMTEsLTAuMzk3IDAuMjg4LC0wLjUwNCBMIDQ0LjEyNiwxNS45NzIgYyAwLjE4NSwtMC4xMDIgMC40MDMsLTAuMTAyIDAuNTg3LDAgMC4xNzYsMC4xMDMgMC4yODcsMC4yOTUgMC4yODcsMC41IHYgMjEuOTQzIGMgMCwwLjIxMSAtMC4xMTEsMC4zOTggLTAuMjg3LDAuNTAyIEwgMjUuNTExLDQ5LjkyMyBDIDI1LjQyOSw0OS45NzYgMjUuMzI1LDUwIDI1LjIyNSw1MCIgaWQ9InBhdGgxMDk5NSIgaW5rc2NhcGU6Y29ubmVjdG9yLWN1cnZhdHVyZT0iMCIgc3R5bGU9Im9wYWNpdHk6MC41O2ZpbGw6I2ZmZmZmZiIvPiYjeGE7PC9zdmc+;dashed=1;strokeColor=default;fontFamily=Verdana;fillColor=#7DD8FF;gradientColor=#FFFFFF;" vertex="1" parent="1">
          <mxGeometry x="503.15999999999997" y="731" width="54.9" height="61" as="geometry" />
        </mxCell>
        <mxCell id="50amSMv1iNsi5kxEuf1A-48" value="Models" style="shape=image;verticalLabelPosition=bottom;verticalAlign=top;imageAspect=0;aspect=fixed;image=data:image/svg+xml,PHN2ZyB4bWxuczpkYz0iaHR0cDovL3B1cmwub3JnL2RjL2VsZW1lbnRzLzEuMS8iIHhtbG5zOmNjPSJodHRwOi8vY3JlYXRpdmVjb21tb25zLm9yZy9ucyMiIHhtbG5zOnJkZj0iaHR0cDovL3d3dy53My5vcmcvMTk5OS8wMi8yMi1yZGYtc3ludGF4LW5zIyIgeG1sbnM6c3ZnPSJodHRwOi8vd3d3LnczLm9yZy8yMDAwL3N2ZyIgeG1sbnM9Imh0dHA6Ly93d3cudzMub3JnLzIwMDAvc3ZnIiB4bWxuczpzb2RpcG9kaT0iaHR0cDovL3NvZGlwb2RpLnNvdXJjZWZvcmdlLm5ldC9EVEQvc29kaXBvZGktMC5kdGQiIHhtbG5zOmlua3NjYXBlPSJodHRwOi8vd3d3Lmlua3NjYXBlLm9yZy9uYW1lc3BhY2VzL2lua3NjYXBlIiB2ZXJzaW9uPSIxLjEiIGlkPSJMYXllcl8xIiB4PSIwcHgiIHk9IjBweCIgd2lkdGg9IjQ1IiBoZWlnaHQ9IjUwIiB2aWV3Qm94PSIwIDAgNDUgNTAiIGVuYWJsZS1iYWNrZ3JvdW5kPSJuZXcgMCAwIDUwIDUwIiB4bWw6c3BhY2U9InByZXNlcnZlIiBzb2RpcG9kaTpkb2NuYW1lPSJyZXNvdXJjZS5zdmciIGlua3NjYXBlOnZlcnNpb249IjAuOTIuMyAoMjQwNTU0NiwgMjAxOC0wMy0xMSkiPjxtZXRhZGF0YSBpZD0ibWV0YWRhdGExMTAwMiI+PHJkZjpSREY+PGNjOldvcmsgcmRmOmFib3V0PSIiPjxkYzpmb3JtYXQ+aW1hZ2Uvc3ZnK3htbDwvZGM6Zm9ybWF0PjxkYzp0eXBlIHJkZjpyZXNvdXJjZT0iaHR0cDovL3B1cmwub3JnL2RjL2RjbWl0eXBlL1N0aWxsSW1hZ2UiLz48ZGM6dGl0bGUvPjwvY2M6V29yaz48L3JkZjpSREY+PC9tZXRhZGF0YT48ZGVmcyBpZD0iZGVmczExMDAwIi8+PHNvZGlwb2RpOm5hbWVkdmlldyBwYWdlY29sb3I9IiNmZmZmZmYiIGJvcmRlcmNvbG9yPSIjNjY2NjY2IiBib3JkZXJvcGFjaXR5PSIxIiBvYmplY3R0b2xlcmFuY2U9IjEwIiBncmlkdG9sZXJhbmNlPSIxMCIgZ3VpZGV0b2xlcmFuY2U9IjEwIiBpbmtzY2FwZTpwYWdlb3BhY2l0eT0iMCIgaW5rc2NhcGU6cGFnZXNoYWRvdz0iMiIgaW5rc2NhcGU6d2luZG93LXdpZHRoPSIxOTIwIiBpbmtzY2FwZTp3aW5kb3ctaGVpZ2h0PSIxMDE3IiBpZD0ibmFtZWR2aWV3MTA5OTgiIHNob3dncmlkPSJmYWxzZSIgZml0LW1hcmdpbi10b3A9IjAiIGZpdC1tYXJnaW4tbGVmdD0iMCIgZml0LW1hcmdpbi1yaWdodD0iMCIgZml0LW1hcmdpbi1ib3R0b209IjAiIGlua3NjYXBlOnpvb209IjE3IiBpbmtzY2FwZTpjeD0iMjIiIGlua3NjYXBlOmN5PSIyNSIgaW5rc2NhcGU6d2luZG93LXg9Ii04IiBpbmtzY2FwZTp3aW5kb3cteT0iLTgiIGlua3NjYXBlOndpbmRvdy1tYXhpbWl6ZWQ9IjEiIGlua3NjYXBlOmN1cnJlbnQtbGF5ZXI9IkxheWVyXzEiLz4mI3hhOzxwYXRoIGQ9Im0gMjIuNTYxLDIzLjE2NyBjIC0wLjEwMywwIC0wLjE5NywtMC4wMyAtMC4yODgsLTAuMDgzIEwgMy4wMTEsMTIuMDQ1IEMgMi44MjgsMTEuOTQyIDIuNzE5LDExLjc0OCAyLjcxOSwxMS41MzkgYyAwLC0wLjIwMyAwLjEwOCwtMC4zOTUgMC4yOTIsLTAuNDk2IEwgMjIuMTQ5LDAuMDc1IGMgMC4xODIsLTAuMSAwLjQwNSwtMC4xIDAuNTc5LDAgTCA0MS45OTQsMTEuMTIgYyAwLjE3NCwwLjEwMiAwLjI5LDAuMjkxIDAuMjksMC40OTYgMCwwLjIxMiAtMC4xMTYsMC40IC0wLjI5LDAuNTA0IEwgMjIuODUzLDIzLjA4NCBjIC0wLjA5MSwwLjA1MyAtMC4xODgsMC4wODMgLTAuMjkyLDAuMDgzIiBpZD0icGF0aDEwOTg5IiBpbmtzY2FwZTpjb25uZWN0b3ItY3VydmF0dXJlPSIwIiBzdHlsZT0iZmlsbDojMzk5OWM2Ii8+JiN4YTs8cGF0aCBkPSJtIDE5Ljc5Miw1MCBjIC0wLjEwNCwwIC0wLjIwNywtMC4wMjQgLTAuMjk1LC0wLjA3NyBMIDAuMjk1LDM4LjkxNyBDIDAuMTEsMzguODE0IDAsMzguNjI2IDAsMzguNDE2IFYgMTYuMzMxIGMgMCwtMC4yMDcgMC4xMSwtMC4zOTcgMC4yOTUsLTAuNTA2IDAuMTc2LC0wLjEgMC40MDEsLTAuMSAwLjU4NiwwIEwgMjAuMDgsMjYuODMxIGMgMC4xNzgsMC4xMDcgMC4yODYsMC4yOTcgMC4yODYsMC41MDQgdiAyMi4wODYgYyAwLDAuMjEyIC0wLjEwOCwwLjM5NyAtMC4yODYsMC41MDIgQyAxOS45ODUsNDkuOTc2IDE5Ljg4OCw1MCAxOS43OTIsNTAiIGlkPSJwYXRoMTA5OTEiIGlua3NjYXBlOmNvbm5lY3Rvci1jdXJ2YXR1cmU9IjAiIHN0eWxlPSJmaWxsOiM1OWI0ZDkiLz4mI3hhOzxwYXRoIGQ9Ik0gMjUuMjI1LDUwIEMgMjUuMTI3LDUwIDI1LjAyNiw0OS45NzYgMjQuOTMsNDkuOTIzIDI0Ljc1Miw0OS44MTggMjQuNjQyLDQ5LjYzNCAyNC42NDIsNDkuNDIxIFYgMjcuNDc4IGMgMCwtMC4yMDcgMC4xMSwtMC4zOTcgMC4yODgsLTAuNTA0IEwgNDQuMTI2LDE1Ljk3MiBjIDAuMTg1LC0wLjEwMiAwLjQwMywtMC4xMDIgMC41ODcsMCAwLjE3NiwwLjEwMyAwLjI4NywwLjI5NSAwLjI4NywwLjUgdiAyMS45NDMgYyAwLDAuMjExIC0wLjExMSwwLjM5OCAtMC4yODcsMC41MDIgTCAyNS41MTEsNDkuOTIzIEMgMjUuNDI5LDQ5Ljk3NiAyNS4zMjUsNTAgMjUuMjI1LDUwIiBpZD0icGF0aDEwOTkzIiBpbmtzY2FwZTpjb25uZWN0b3ItY3VydmF0dXJlPSIwIiBzdHlsZT0iZmlsbDojNTliNGQ5Ii8+JiN4YTs8cGF0aCBkPSJNIDI1LjIyNSw1MCBDIDI1LjEyNyw1MCAyNS4wMjYsNDkuOTc2IDI0LjkzLDQ5LjkyMyAyNC43NTIsNDkuODE4IDI0LjY0Miw0OS42MzQgMjQuNjQyLDQ5LjQyMSBWIDI3LjQ3OCBjIDAsLTAuMjA3IDAuMTEsLTAuMzk3IDAuMjg4LC0wLjUwNCBMIDQ0LjEyNiwxNS45NzIgYyAwLjE4NSwtMC4xMDIgMC40MDMsLTAuMTAyIDAuNTg3LDAgMC4xNzYsMC4xMDMgMC4yODcsMC4yOTUgMC4yODcsMC41IHYgMjEuOTQzIGMgMCwwLjIxMSAtMC4xMTEsMC4zOTggLTAuMjg3LDAuNTAyIEwgMjUuNTExLDQ5LjkyMyBDIDI1LjQyOSw0OS45NzYgMjUuMzI1LDUwIDI1LjIyNSw1MCIgaWQ9InBhdGgxMDk5NSIgaW5rc2NhcGU6Y29ubmVjdG9yLWN1cnZhdHVyZT0iMCIgc3R5bGU9Im9wYWNpdHk6MC41O2ZpbGw6I2ZmZmZmZiIvPiYjeGE7PC9zdmc+;dashed=1;strokeColor=default;fontFamily=Verdana;fillColor=#7DD8FF;gradientColor=#FFFFFF;" vertex="1" parent="1">
          <mxGeometry x="631" y="731" width="54.9" height="61" as="geometry" />
        </mxCell>
        <mxCell id="50amSMv1iNsi5kxEuf1A-49" value="Commons" style="shape=image;verticalLabelPosition=bottom;verticalAlign=top;imageAspect=0;aspect=fixed;image=data:image/svg+xml,PHN2ZyB4bWxuczpkYz0iaHR0cDovL3B1cmwub3JnL2RjL2VsZW1lbnRzLzEuMS8iIHhtbG5zOmNjPSJodHRwOi8vY3JlYXRpdmVjb21tb25zLm9yZy9ucyMiIHhtbG5zOnJkZj0iaHR0cDovL3d3dy53My5vcmcvMTk5OS8wMi8yMi1yZGYtc3ludGF4LW5zIyIgeG1sbnM6c3ZnPSJodHRwOi8vd3d3LnczLm9yZy8yMDAwL3N2ZyIgeG1sbnM9Imh0dHA6Ly93d3cudzMub3JnLzIwMDAvc3ZnIiB4bWxuczpzb2RpcG9kaT0iaHR0cDovL3NvZGlwb2RpLnNvdXJjZWZvcmdlLm5ldC9EVEQvc29kaXBvZGktMC5kdGQiIHhtbG5zOmlua3NjYXBlPSJodHRwOi8vd3d3Lmlua3NjYXBlLm9yZy9uYW1lc3BhY2VzL2lua3NjYXBlIiB2ZXJzaW9uPSIxLjEiIGlkPSJMYXllcl8xIiB4PSIwcHgiIHk9IjBweCIgd2lkdGg9IjQ1IiBoZWlnaHQ9IjUwIiB2aWV3Qm94PSIwIDAgNDUgNTAiIGVuYWJsZS1iYWNrZ3JvdW5kPSJuZXcgMCAwIDUwIDUwIiB4bWw6c3BhY2U9InByZXNlcnZlIiBzb2RpcG9kaTpkb2NuYW1lPSJyZXNvdXJjZS5zdmciIGlua3NjYXBlOnZlcnNpb249IjAuOTIuMyAoMjQwNTU0NiwgMjAxOC0wMy0xMSkiPjxtZXRhZGF0YSBpZD0ibWV0YWRhdGExMTAwMiI+PHJkZjpSREY+PGNjOldvcmsgcmRmOmFib3V0PSIiPjxkYzpmb3JtYXQ+aW1hZ2Uvc3ZnK3htbDwvZGM6Zm9ybWF0PjxkYzp0eXBlIHJkZjpyZXNvdXJjZT0iaHR0cDovL3B1cmwub3JnL2RjL2RjbWl0eXBlL1N0aWxsSW1hZ2UiLz48ZGM6dGl0bGUvPjwvY2M6V29yaz48L3JkZjpSREY+PC9tZXRhZGF0YT48ZGVmcyBpZD0iZGVmczExMDAwIi8+PHNvZGlwb2RpOm5hbWVkdmlldyBwYWdlY29sb3I9IiNmZmZmZmYiIGJvcmRlcmNvbG9yPSIjNjY2NjY2IiBib3JkZXJvcGFjaXR5PSIxIiBvYmplY3R0b2xlcmFuY2U9IjEwIiBncmlkdG9sZXJhbmNlPSIxMCIgZ3VpZGV0b2xlcmFuY2U9IjEwIiBpbmtzY2FwZTpwYWdlb3BhY2l0eT0iMCIgaW5rc2NhcGU6cGFnZXNoYWRvdz0iMiIgaW5rc2NhcGU6d2luZG93LXdpZHRoPSIxOTIwIiBpbmtzY2FwZTp3aW5kb3ctaGVpZ2h0PSIxMDE3IiBpZD0ibmFtZWR2aWV3MTA5OTgiIHNob3dncmlkPSJmYWxzZSIgZml0LW1hcmdpbi10b3A9IjAiIGZpdC1tYXJnaW4tbGVmdD0iMCIgZml0LW1hcmdpbi1yaWdodD0iMCIgZml0LW1hcmdpbi1ib3R0b209IjAiIGlua3NjYXBlOnpvb209IjE3IiBpbmtzY2FwZTpjeD0iMjIiIGlua3NjYXBlOmN5PSIyNSIgaW5rc2NhcGU6d2luZG93LXg9Ii04IiBpbmtzY2FwZTp3aW5kb3cteT0iLTgiIGlua3NjYXBlOndpbmRvdy1tYXhpbWl6ZWQ9IjEiIGlua3NjYXBlOmN1cnJlbnQtbGF5ZXI9IkxheWVyXzEiLz4mI3hhOzxwYXRoIGQ9Im0gMjIuNTYxLDIzLjE2NyBjIC0wLjEwMywwIC0wLjE5NywtMC4wMyAtMC4yODgsLTAuMDgzIEwgMy4wMTEsMTIuMDQ1IEMgMi44MjgsMTEuOTQyIDIuNzE5LDExLjc0OCAyLjcxOSwxMS41MzkgYyAwLC0wLjIwMyAwLjEwOCwtMC4zOTUgMC4yOTIsLTAuNDk2IEwgMjIuMTQ5LDAuMDc1IGMgMC4xODIsLTAuMSAwLjQwNSwtMC4xIDAuNTc5LDAgTCA0MS45OTQsMTEuMTIgYyAwLjE3NCwwLjEwMiAwLjI5LDAuMjkxIDAuMjksMC40OTYgMCwwLjIxMiAtMC4xMTYsMC40IC0wLjI5LDAuNTA0IEwgMjIuODUzLDIzLjA4NCBjIC0wLjA5MSwwLjA1MyAtMC4xODgsMC4wODMgLTAuMjkyLDAuMDgzIiBpZD0icGF0aDEwOTg5IiBpbmtzY2FwZTpjb25uZWN0b3ItY3VydmF0dXJlPSIwIiBzdHlsZT0iZmlsbDojMzk5OWM2Ii8+JiN4YTs8cGF0aCBkPSJtIDE5Ljc5Miw1MCBjIC0wLjEwNCwwIC0wLjIwNywtMC4wMjQgLTAuMjk1LC0wLjA3NyBMIDAuMjk1LDM4LjkxNyBDIDAuMTEsMzguODE0IDAsMzguNjI2IDAsMzguNDE2IFYgMTYuMzMxIGMgMCwtMC4yMDcgMC4xMSwtMC4zOTcgMC4yOTUsLTAuNTA2IDAuMTc2LC0wLjEgMC40MDEsLTAuMSAwLjU4NiwwIEwgMjAuMDgsMjYuODMxIGMgMC4xNzgsMC4xMDcgMC4yODYsMC4yOTcgMC4yODYsMC41MDQgdiAyMi4wODYgYyAwLDAuMjEyIC0wLjEwOCwwLjM5NyAtMC4yODYsMC41MDIgQyAxOS45ODUsNDkuOTc2IDE5Ljg4OCw1MCAxOS43OTIsNTAiIGlkPSJwYXRoMTA5OTEiIGlua3NjYXBlOmNvbm5lY3Rvci1jdXJ2YXR1cmU9IjAiIHN0eWxlPSJmaWxsOiM1OWI0ZDkiLz4mI3hhOzxwYXRoIGQ9Ik0gMjUuMjI1LDUwIEMgMjUuMTI3LDUwIDI1LjAyNiw0OS45NzYgMjQuOTMsNDkuOTIzIDI0Ljc1Miw0OS44MTggMjQuNjQyLDQ5LjYzNCAyNC42NDIsNDkuNDIxIFYgMjcuNDc4IGMgMCwtMC4yMDcgMC4xMSwtMC4zOTcgMC4yODgsLTAuNTA0IEwgNDQuMTI2LDE1Ljk3MiBjIDAuMTg1LC0wLjEwMiAwLjQwMywtMC4xMDIgMC41ODcsMCAwLjE3NiwwLjEwMyAwLjI4NywwLjI5NSAwLjI4NywwLjUgdiAyMS45NDMgYyAwLDAuMjExIC0wLjExMSwwLjM5OCAtMC4yODcsMC41MDIgTCAyNS41MTEsNDkuOTIzIEMgMjUuNDI5LDQ5Ljk3NiAyNS4zMjUsNTAgMjUuMjI1LDUwIiBpZD0icGF0aDEwOTkzIiBpbmtzY2FwZTpjb25uZWN0b3ItY3VydmF0dXJlPSIwIiBzdHlsZT0iZmlsbDojNTliNGQ5Ii8+JiN4YTs8cGF0aCBkPSJNIDI1LjIyNSw1MCBDIDI1LjEyNyw1MCAyNS4wMjYsNDkuOTc2IDI0LjkzLDQ5LjkyMyAyNC43NTIsNDkuODE4IDI0LjY0Miw0OS42MzQgMjQuNjQyLDQ5LjQyMSBWIDI3LjQ3OCBjIDAsLTAuMjA3IDAuMTEsLTAuMzk3IDAuMjg4LC0wLjUwNCBMIDQ0LjEyNiwxNS45NzIgYyAwLjE4NSwtMC4xMDIgMC40MDMsLTAuMTAyIDAuNTg3LDAgMC4xNzYsMC4xMDMgMC4yODcsMC4yOTUgMC4yODcsMC41IHYgMjEuOTQzIGMgMCwwLjIxMSAtMC4xMTEsMC4zOTggLTAuMjg3LDAuNTAyIEwgMjUuNTExLDQ5LjkyMyBDIDI1LjQyOSw0OS45NzYgMjUuMzI1LDUwIDI1LjIyNSw1MCIgaWQ9InBhdGgxMDk5NSIgaW5rc2NhcGU6Y29ubmVjdG9yLWN1cnZhdHVyZT0iMCIgc3R5bGU9Im9wYWNpdHk6MC41O2ZpbGw6I2ZmZmZmZiIvPiYjeGE7PC9zdmc+;dashed=1;strokeColor=default;fontFamily=Verdana;fillColor=#7DD8FF;gradientColor=#FFFFFF;" vertex="1" parent="1">
          <mxGeometry x="763" y="731" width="54.9" height="61" as="geometry" />
        </mxCell>
        <mxCell id="50amSMv1iNsi5kxEuf1A-64" style="edgeStyle=orthogonalEdgeStyle;shape=link;rounded=0;orthogonalLoop=1;jettySize=auto;html=1;fontFamily=Verdana;" edge="1" parent="1" source="50amSMv1iNsi5kxEuf1A-50" target="50amSMv1iNsi5kxEuf1A-40">
          <mxGeometry relative="1" as="geometry" />
        </mxCell>
        <mxCell id="50amSMv1iNsi5kxEuf1A-50" value="&lt;font face=&quot;Verdana&quot;&gt;TWS Deep Learning&lt;/font&gt;" style="whiteSpace=wrap;html=1;rounded=1;shadow=0;strokeWidth=2;fontSize=20;align=center;arcSize=3;verticalAlign=top;spacingTop=4;fillColor=#f8cecc;strokeColor=#b85450;gradientColor=#FFFFFF;" vertex="1" parent="1">
          <mxGeometry x="328.93" y="1200" width="1096.13" height="208" as="geometry" />
        </mxCell>
        <mxCell id="50amSMv1iNsi5kxEuf1A-51" value="Stage" style="sketch=0;aspect=fixed;html=1;points=[];align=center;image;fontSize=12;image=img/lib/mscae/App_Services.svg;dashed=1;strokeColor=default;fontFamily=Verdana;fillColor=#7DD8FF;gradientColor=#FFFFFF;" vertex="1" parent="1">
          <mxGeometry x="1012" y="508" width="50" height="50" as="geometry" />
        </mxCell>
        <mxCell id="50amSMv1iNsi5kxEuf1A-52" value="Production" style="sketch=0;aspect=fixed;html=1;points=[];align=center;image;fontSize=12;image=img/lib/mscae/App_Services.svg;dashed=1;strokeColor=default;fontFamily=Verdana;fillColor=#7DD8FF;gradientColor=#FFFFFF;" vertex="1" parent="1">
          <mxGeometry x="1267" y="508" width="50" height="50" as="geometry" />
        </mxCell>
        <mxCell id="50amSMv1iNsi5kxEuf1A-65" value="" style="edgeStyle=orthogonalEdgeStyle;rounded=0;orthogonalLoop=1;jettySize=auto;html=1;fontFamily=Verdana;" edge="1" parent="1" source="50amSMv1iNsi5kxEuf1A-66" target="50amSMv1iNsi5kxEuf1A-69">
          <mxGeometry relative="1" as="geometry" />
        </mxCell>
        <mxCell id="50amSMv1iNsi5kxEuf1A-66" value="" style="shape=image;verticalLabelPosition=bottom;labelBackgroundColor=#ffffff;verticalAlign=top;aspect=fixed;imageAspect=0;image=data:image/svg+xml,PHN2ZyB4bWxuczpkYz0iaHR0cDovL3B1cmwub3JnL2RjL2VsZW1lbnRzLzEuMS8iIHhtbG5zOmNjPSJodHRwOi8vY3JlYXRpdmVjb21tb25zLm9yZy9ucyMiIHhtbG5zOnJkZj0iaHR0cDovL3d3dy53My5vcmcvMTk5OS8wMi8yMi1yZGYtc3ludGF4LW5zIyIgeG1sbnM6c3ZnPSJodHRwOi8vd3d3LnczLm9yZy8yMDAwL3N2ZyIgeG1sbnM9Imh0dHA6Ly93d3cudzMub3JnLzIwMDAvc3ZnIiB4bWxuczpzb2RpcG9kaT0iaHR0cDovL3NvZGlwb2RpLnNvdXJjZWZvcmdlLm5ldC9EVEQvc29kaXBvZGktMC5kdGQiIHhtbG5zOmlua3NjYXBlPSJodHRwOi8vd3d3Lmlua3NjYXBlLm9yZy9uYW1lc3BhY2VzL2lua3NjYXBlIiB2ZXJzaW9uPSIxLjEiIGlkPSJzdmc4NjA4MSIgaW5rc2NhcGU6dmVyc2lvbj0iMC45Mi4zICgyNDA1NTQ2LCAyMDE4LTAzLTExKSIgc29kaXBvZGk6ZG9jbmFtZT0ibW9iaWxlX2VuZ2FnZW1lbnQuc3ZnIiB4PSIwcHgiIHk9IjBweCIgdmlld0JveD0iMCAwIDQ0LjMzIDY0LjQzMDAwMSIgeG1sOnNwYWNlPSJwcmVzZXJ2ZSIgd2lkdGg9IjQ0LjMzMDAwMiIgaGVpZ2h0PSI2NC40MyI+PG1ldGFkYXRhIGlkPSJtZXRhZGF0YTQ5MDciPjxyZGY6UkRGPjxjYzpXb3JrIHJkZjphYm91dD0iIj48ZGM6Zm9ybWF0PmltYWdlL3N2Zyt4bWw8L2RjOmZvcm1hdD48ZGM6dHlwZSByZGY6cmVzb3VyY2U9Imh0dHA6Ly9wdXJsLm9yZy9kYy9kY21pdHlwZS9TdGlsbEltYWdlIi8+PGRjOnRpdGxlLz48L2NjOldvcms+PC9yZGY6UkRGPjwvbWV0YWRhdGE+PGRlZnMgaWQ9ImRlZnM0OTA1Ii8+JiN4YTs8ZmlsdGVyIGlkPSJmaWx0ZXJfMiI+JiN4YTsJPGZlR2F1c3NpYW5CbHVyIGlkPSJmZUdhdXNzaWFuQmx1cjg1OTgyIiBzdGREZXZpYXRpb249IjIiLz4mI3hhOzwvZmlsdGVyPiYjeGE7PHNvZGlwb2RpOm5hbWVkdmlldyBib3JkZXJjb2xvcj0iIzY2NjY2NiIgYm9yZGVyb3BhY2l0eT0iMSIgZml0LW1hcmdpbi1ib3R0b209IjAiIGZpdC1tYXJnaW4tbGVmdD0iMCIgZml0LW1hcmdpbi1yaWdodD0iMCIgZml0LW1hcmdpbi10b3A9IjAiIGdyaWR0b2xlcmFuY2U9IjEwIiBndWlkZXRvbGVyYW5jZT0iMTAiIGlkPSJuYW1lZHZpZXc4NjA4MyIgaW5rc2NhcGU6Y3VycmVudC1sYXllcj0ic3ZnODYwODEiIGlua3NjYXBlOmN4PSItMzguODI2NDMyIiBpbmtzY2FwZTpjeT0iMjMuNTg4Mzg4IiBpbmtzY2FwZTpwYWdlb3BhY2l0eT0iMCIgaW5rc2NhcGU6cGFnZXNoYWRvdz0iMiIgaW5rc2NhcGU6d2luZG93LWhlaWdodD0iMTAxNyIgaW5rc2NhcGU6d2luZG93LW1heGltaXplZD0iMSIgaW5rc2NhcGU6d2luZG93LXdpZHRoPSIxOTIwIiBpbmtzY2FwZTp3aW5kb3cteD0iLTgiIGlua3NjYXBlOndpbmRvdy15PSItOCIgaW5rc2NhcGU6em9vbT0iNy4zMTM2NDEiIG9iamVjdHRvbGVyYW5jZT0iMTAiIHBhZ2Vjb2xvcj0iI2ZmZmZmZiIgc2hvd2dyaWQ9ImZhbHNlIj4mI3hhOwk8L3NvZGlwb2RpOm5hbWVkdmlldz4mI3hhOyYjeGE7PHBhdGggaWQ9InBhdGg4NTk5NSIgaW5rc2NhcGU6Y29ubmVjdG9yLWN1cnZhdHVyZT0iMCIgc3R5bGU9ImZpbGw6IzNlM2UzZSIgZD0ibSA0NC4zMyw2MC41NiBjIDAsMi4xOSAtMS42OCwzLjg3IC0zLjg3LDMuODcgSCAzLjg3IEMgMS42OCw2NC40MyAwLDYyLjc1IDAsNjAuNTYgViAzLjg3IEMgMCwxLjY4IDEuNjgsMCAzLjg3LDAgaCAzNi41OSBjIDIuMTksMCAzLjg3LDEuNjggMy44NywzLjg3IHoiLz4mI3hhOyYjeGE7PHJlY3QgaWQ9InJlY3Q4NjAwMyIgeD0iMi44MzAwMDE4IiB5PSI2LjQ0MDAwMDEiIHN0eWxlPSJmaWxsOiM1OWI0ZDkiIHdpZHRoPSIzOC42NiIgaGVpZ2h0PSI0NS4zNjAwMDEiLz4mI3hhOyYjeGE7PHBhdGggaWQ9InBhdGg4NjAxMSIgaW5rc2NhcGU6Y29ubmVjdG9yLWN1cnZhdHVyZT0iMCIgc3R5bGU9ImZpbGw6I2ZmZmZmZiIgZD0ibSAyNS45LDU4LjExIGMgMCwyLjA2IC0xLjY3LDMuNzQgLTMuNzMsMy43NCAtMi4wNiwwIC0zLjc0LC0xLjY4IC0zLjc0LC0zLjc0IDAsLTIuMDYgMS42OCwtMy43MyAzLjc0LC0zLjczIDIuMDYsMCAzLjczLDEuNjcgMy43MywzLjczIHoiLz4mI3hhOyYjeGE7PHBhdGggaWQ9InBhdGg4NjAxOSIgaW5rc2NhcGU6Y29ubmVjdG9yLWN1cnZhdHVyZT0iMCIgc3R5bGU9ImZpbGw6I2I4ZDQzMiIgZD0ibSAyNC42Miw1OC4xMSBjIDAsMS4yOSAtMS4wMywyLjQ1IC0yLjQ1LDIuNDUgLTEuMjksMCAtMi40NSwtMS4wMyAtMi40NSwtMi40NSAwLC0xLjQyIDEuMDMsLTIuNDUgMi40NSwtMi40NSAxLjQyLDAgMi40NSwxLjE2IDIuNDUsMi40NSB6Ii8+JiN4YTsmI3hhOzxwYXRoIGlkPSJwYXRoODYwMjciIGlua3NjYXBlOmNvbm5lY3Rvci1jdXJ2YXR1cmU9IjAiIHN0eWxlPSJmaWxsOiNmZmZmZmY7ZmlsbC1vcGFjaXR5OjAuMTUiIGQ9Ik0gMi44Myw1MS44IFYgNi40NCBIIDMyLjIxIEwgMzQuNzksMCBIIDMuODcgQyAxLjY4LDAgMCwxLjY4IDAsMy44NyB2IDU2LjY5IGMgMCwyLjE5IDEuNjgsMy44NyAzLjg3LDMuODcgSCA4LjYzIEwgMTMuNzksNTEuOCBaIi8+JiN4YTsmI3hhOyYjeGE7JiN4YTs8cGF0aCBpZD0icGF0aDg2MDQzIiBpbmtzY2FwZTpjb25uZWN0b3ItY3VydmF0dXJlPSIwIiBzdHlsZT0iZmlsbDojZmZmZmZmIiBkPSJtIDI4LjczLDMuNjEgYyAwLDAuNTEgLTAuMzgsMC45IC0wLjksMC45IEggMTYuNjIgYyAtMC41MSwwIC0wLjksLTAuMzkgLTAuOSwtMC45IDAsLTAuNTIgMC4zOSwtMC45IDAuOSwtMC45IGggMTEuMjEgYyAwLjUyLDAgMC45LDAuMzggMC45LDAuOSB6Ii8+JiN4YTsmI3hhOzxyZWN0IGlkPSJyZWN0ODYwNTEiIHg9IjYuODMwMDAxOCIgeT0iNDEuNjE5OTk5IiBzdHlsZT0iZmlsbDojZmZmZmZmO2ZpbGwtb3BhY2l0eTowLjc1IiB3aWR0aD0iNy43MyIgaGVpZ2h0PSI3LjczIi8+JiN4YTsmI3hhOzxyZWN0IGlkPSJyZWN0ODYwNTkiIHg9IjE4LjA0MDAwMSIgeT0iMzUuODIiIHN0eWxlPSJmaWxsOiNmZmZmZmY7ZmlsbC1vcGFjaXR5OjAuNzUiIHdpZHRoPSI3LjczIiBoZWlnaHQ9IjEzLjUzIi8+JiN4YTsmI3hhOzxyZWN0IGlkPSJyZWN0ODYwNjciIHg9IjI5LjI1IiB5PSIzMC4wMiIgc3R5bGU9ImZpbGw6I2ZmZmZmZjtmaWxsLW9wYWNpdHk6MC43NSIgd2lkdGg9IjcuNzMiIGhlaWdodD0iMTkuMzMiLz4mI3hhOyYjeGE7PHBhdGggaWQ9InBhdGg4NjA3NSIgaW5rc2NhcGU6Y29ubmVjdG9yLWN1cnZhdHVyZT0iMCIgc3R5bGU9ImZpbGw6I2ZmZmZmZjtmaWxsLW9wYWNpdHk6MC43NSIgZD0iTSAzMy4zNyw5LjAyIEggMTAuNDQgYyAtMi4wNiwwIC0zLjYxLDEuNjggLTMuNjEsMy42MSB2IDExLjA4IGMgMCwyLjA2IDEuNjgsMy42MSAzLjYxLDMuNjEgaCA0LjUxIHYgNC43NyBsIDQuNzcsLTQuNzcgaCAxMy42NSBjIDIuMDcsMCAzLjYxLC0xLjY3IDMuNjEsLTMuNjEgViAxMi42MyBjIDAsLTEuOTMgLTEuNTQsLTMuNjEgLTMuNjEsLTMuNjEgeiIvPiYjeGE7PC9zdmc+;" vertex="1" parent="1">
          <mxGeometry x="1139.0500000000002" y="29" width="37.13" height="54" as="geometry" />
        </mxCell>
        <mxCell id="50amSMv1iNsi5kxEuf1A-67" style="edgeStyle=orthogonalEdgeStyle;rounded=0;orthogonalLoop=1;jettySize=auto;html=1;fontFamily=Verdana;" edge="1" parent="1" source="50amSMv1iNsi5kxEuf1A-68" target="50amSMv1iNsi5kxEuf1A-69">
          <mxGeometry relative="1" as="geometry" />
        </mxCell>
        <mxCell id="50amSMv1iNsi5kxEuf1A-68" value="" style="aspect=fixed;html=1;points=[];align=center;image;fontSize=12;image=img/lib/azure2/networking/DNS_Zones.svg;" vertex="1" parent="1">
          <mxGeometry x="898.88" y="137.22" width="60" height="60" as="geometry" />
        </mxCell>
        <mxCell id="50amSMv1iNsi5kxEuf1A-69" value="Internet" style="aspect=fixed;perimeter=ellipsePerimeter;html=1;align=center;shadow=0;dashed=0;spacingTop=3;image;image=img/lib/active_directory/internet_cloud.svg;fontFamily=Verdana;" vertex="1" parent="1">
          <mxGeometry x="1110.62" y="138.39" width="94" height="59.22" as="geometry" />
        </mxCell>
        <mxCell id="50amSMv1iNsi5kxEuf1A-70" style="edgeStyle=orthogonalEdgeStyle;rounded=0;orthogonalLoop=1;jettySize=auto;html=1;entryX=1;entryY=0.5;entryDx=0;entryDy=0;fontFamily=Verdana;" edge="1" parent="1" source="50amSMv1iNsi5kxEuf1A-71" target="50amSMv1iNsi5kxEuf1A-69">
          <mxGeometry relative="1" as="geometry" />
        </mxCell>
        <mxCell id="50amSMv1iNsi5kxEuf1A-71" value="" style="aspect=fixed;html=1;points=[];align=center;image;fontSize=12;image=img/lib/azure2/identity/Azure_Active_Directory.svg;fontFamily=Verdana;" vertex="1" parent="1">
          <mxGeometry x="1347.6399999999999" y="135.22" width="70" height="64" as="geometry" />
        </mxCell>
      </root>
    </mxGraphModel>
  </diagram>
</mxfile>
